<svg width="708" height="198" xmlns="http://www.w3.org/2000/svg"><defs><linearGradient x1="50%" y1="0%" x2="50%" y2="100%" id="a"><stop stop-color="#F3F5F7" offset="0%"/><stop stop-color="#E5E8EA" offset="86%"/><stop stop-color="#E2E6E8" offset="100%"/></linearGradient><linearGradient x1="50%" y1="0%" x2="50%" y2="100%" id="b"><stop stop-color="#F3F5F7" offset="0%"/><stop stop-color="#E5E8EA" offset="86%"/><stop stop-color="#E2E6E8" offset="100%"/></linearGradient><linearGradient x1="23.581%" y1="39.968%" x2="76.419%" y2="60.06%" id="c"><stop stop-color="#CECECE" offset="0%"/><stop stop-color="#D8DADB" offset="25%"/><stop stop-color="#E0E3E5" offset="57%"/><stop stop-color="#E2E6E8" offset="100%"/></linearGradient><linearGradient x1="23.599%" y1="39.954%" x2="76.475%" y2="60.075%" id="d"><stop stop-color="#CECECE" offset="0%"/><stop stop-color="#D8DADB" offset="25%"/><stop stop-color="#E0E3E5" offset="57%"/><stop stop-color="#E2E6E8" offset="100%"/></linearGradient><linearGradient x1="49.883%" y1="0%" x2="49.883%" y2="100%" id="e"><stop stop-color="#CECECE" offset="0%"/><stop stop-color="#D7D9DA" offset="24%"/><stop stop-color="#DFE3E4" offset="60%"/><stop stop-color="#E2E6E8" offset="100%"/></linearGradient><linearGradient x1="50%" y1="0%" x2="50%" y2="99.961%" id="f"><stop stop-color="#F3F5F7" offset="0%"/><stop stop-color="#F1F3F5" offset="64%"/><stop stop-color="#EAEDEF" offset="87%"/><stop stop-color="#E2E6E8" offset="100%"/></linearGradient><linearGradient x1="23.581%" y1="39.968%" x2="76.419%" y2="60.032%" id="g"><stop stop-color="#CECECE" offset="0%"/><stop stop-color="#D8DADB" offset="25%"/><stop stop-color="#E0E3E5" offset="57%"/><stop stop-color="#E2E6E8" offset="100%"/></linearGradient><linearGradient x1="50.043%" y1=".341%" x2="50.043%" y2="100.546%" id="h"><stop stop-color="#F3F5F7" offset="0%"/><stop stop-color="#EEF1F3" offset="49%"/><stop stop-color="#E2E6E8" offset="100%"/></linearGradient><linearGradient x1="50.032%" y1="0%" x2="50.032%" y2="99.937%" id="i"><stop stop-color="#F3F5F7" offset="0%"/><stop stop-color="#E2E6E8" offset="100%"/></linearGradient><linearGradient x1="0%" y1="50%" x2="99.843%" y2="50%" id="j"><stop stop-color="#CECECE" offset="0%"/><stop stop-color="#D7D9DA" offset="24%"/><stop stop-color="#DFE3E4" offset="60%"/><stop stop-color="#E2E6E8" offset="100%"/></linearGradient><linearGradient x1="50%" y1="0%" x2="50%" y2="100%" id="k"><stop stop-color="#F3F5F7" offset="0%"/><stop stop-color="#F1F3F5" offset="45%"/><stop stop-color="#E9EDEF" offset="65%"/><stop stop-color="#E2E6E8" offset="76%"/></linearGradient><linearGradient x1="50.019%" y1="0%" x2="50.019%" y2="100%" id="l"><stop stop-color="#F3F5F7" offset="0%"/><stop stop-color="#E2E6E8" offset="100%"/></linearGradient><linearGradient x1="0%" y1="50%" x2="99.906%" y2="50%" id="m"><stop stop-color="#CECECE" offset="0%"/><stop stop-color="#D7D9DA" offset="24%"/><stop stop-color="#DFE3E4" offset="60%"/><stop stop-color="#E2E6E8" offset="100%"/></linearGradient><linearGradient x1="49.995%" y1="0%" x2="49.995%" y2="100%" id="n"><stop stop-color="#F3F5F7" offset="0%"/><stop stop-color="#F0F2F4" offset="50%"/><stop stop-color="#E6E9EB" offset="90%"/><stop stop-color="#E2E6E8" offset="100%"/></linearGradient><linearGradient x1="50.127%" y1="0%" x2="50.127%" y2="100%" id="o"><stop stop-color="#CECECE" offset="0%"/><stop stop-color="#D7D9DA" offset="24%"/><stop stop-color="#DFE3E4" offset="60%"/><stop stop-color="#E2E6E8" offset="100%"/></linearGradient><linearGradient x1="50.36%" y1=".371%" x2="50.36%" y2="99.907%" id="p"><stop stop-color="#F3F5F7" offset="0%"/><stop stop-color="#F1F3F5" offset="64%"/><stop stop-color="#EAEDEF" offset="87%"/><stop stop-color="#E2E6E8" offset="100%"/></linearGradient><linearGradient x1="50%" y1="0%" x2="50%" y2="100%" id="q"><stop stop-color="#CECECE" offset="0%"/><stop stop-color="#D7D9DA" offset="24%"/><stop stop-color="#DFE3E4" offset="60%"/><stop stop-color="#E2E6E8" offset="100%"/></linearGradient><linearGradient x1="49.955%" y1=".473%" x2="49.955%" y2="99.804%" id="r"><stop stop-color="#F3F5F7" offset="0%"/><stop stop-color="#F1F3F5" offset="64%"/><stop stop-color="#EAEDEF" offset="87%"/><stop stop-color="#E2E6E8" offset="100%"/></linearGradient><linearGradient x1="50%" y1=".371%" x2="50%" y2="99.907%" id="s"><stop stop-color="#F3F5F7" offset="0%"/><stop stop-color="#F1F3F5" offset="64%"/><stop stop-color="#EAEDEF" offset="87%"/><stop stop-color="#E2E6E8" offset="100%"/></linearGradient><linearGradient x1="50%" y1="0%" x2="50%" y2="100%" id="t"><stop stop-color="#CECECE" offset="0%"/><stop stop-color="#D7D9DA" offset="24%"/><stop stop-color="#DFE3E4" offset="60%"/><stop stop-color="#E2E6E8" offset="100%"/></linearGradient><linearGradient x1="50%" y1="0%" x2="50%" y2="100%" id="u"><stop stop-color="#F3F5F7" offset="0%"/><stop stop-color="#ECEFF1" offset="54%"/><stop stop-color="#E2E6E8" offset="100%"/></linearGradient><linearGradient x1="49.988%" y1="0%" x2="49.988%" y2="100%" id="v"><stop stop-color="#F3F5F7" offset="0%"/><stop stop-color="#E5E8EA" offset="86%"/><stop stop-color="#E2E6E8" offset="100%"/></linearGradient><linearGradient x1="23.599%" y1="39.92%" x2="76.401%" y2="60.08%" id="w"><stop stop-color="#CECECE" offset="0%"/><stop stop-color="#D8DADB" offset="25%"/><stop stop-color="#E0E3E5" offset="57%"/><stop stop-color="#E2E6E8" offset="100%"/></linearGradient><linearGradient x1="23.599%" y1="39.954%" x2="76.401%" y2="60.075%" id="x"><stop stop-color="#CECECE" offset="0%"/><stop stop-color="#D8DADB" offset="25%"/><stop stop-color="#E0E3E5" offset="57%"/><stop stop-color="#E2E6E8" offset="100%"/></linearGradient><linearGradient x1="23.599%" y1="39.954%" x2="76.401%" y2="60.046%" id="y"><stop stop-color="#CECECE" offset="0%"/><stop stop-color="#D8DADB" offset="25%"/><stop stop-color="#E0E3E5" offset="57%"/><stop stop-color="#E2E6E8" offset="100%"/></linearGradient><linearGradient x1="23.599%" y1="39.925%" x2="76.401%" y2="60.046%" id="z"><stop stop-color="#CECECE" offset="0%"/><stop stop-color="#D8DADB" offset="25%"/><stop stop-color="#E0E3E5" offset="57%"/><stop stop-color="#E2E6E8" offset="100%"/></linearGradient><linearGradient x1="35.802%" y1="46.204%" x2="64.198%" y2="53.796%" id="A"><stop stop-color="#CECECE" offset="0%"/><stop stop-color="#D7D9DA" offset="24%"/><stop stop-color="#DFE3E4" offset="60%"/><stop stop-color="#E2E6E8" offset="100%"/></linearGradient><linearGradient x1="35.802%" y1="46.214%" x2="64.198%" y2="53.791%" id="B"><stop stop-color="#CECECE" offset="0%"/><stop stop-color="#D7D9DA" offset="24%"/><stop stop-color="#DFE3E4" offset="60%"/><stop stop-color="#E2E6E8" offset="100%"/></linearGradient></defs><g fill="none" fill-rule="evenodd"><g transform="translate(54)"><path fill="#EAEEEF" fill-rule="nonzero" d="M.78 156.75h625.03v5.65H.78z"/><path fill="url(#a)" fill-rule="nonzero" d="M490.99 156.9h42.82V71.24l-42.82-9.38z"/><ellipse fill="#F7F8F9" fill-rule="nonzero" cx="591.76" cy="72.18" rx="5.66" ry="5.64"/><ellipse fill="#F7F8F9" fill-rule="nonzero" cx="601.92" cy="72.18" rx="5.66" ry="5.64"/><ellipse fill="#F7F8F9" fill-rule="nonzero" cx="581.95" cy="72.18" rx="5.66" ry="5.64"/><path fill="url(#b)" fill-rule="nonzero" d="M111.31 157.7H68.49V97.22l42.82-9.38z"/><path fill="url(#c)" d="M85.61 122.94H74.24l2.2-5.16h11.37z"/><path fill="url(#d)" d="M102.77 122.94H91.4l2.2-5.16h11.36z"/><path fill="url(#c)" d="M85.61 112.92H74.24l2.2-5.16h11.37z"/><path fill="url(#d)" d="M102.77 112.92H91.4l2.2-5.16h11.36z"/><path fill="url(#e)" fill-rule="nonzero" d="M51.65 156.9h-4.27l.5-13.88h3.27z"/><ellipse fill="url(#f)" fill-rule="nonzero" cx="49.51" cy="130.65" rx="12.75" ry="12.72"/><path d="M45.74 156.9a9.54 9.54 0 00.11-1.33 9.32 9.32 0 00-18.63 0c.002.445.036.89.1 1.33h18.42z" fill="#F3F5F7" fill-rule="nonzero"/><path d="M32.89 156.9a9.56 9.56 0 00.1-1.33 9.32 9.32 0 00-18.63 0c.006.445.042.89.11 1.33h18.42zm379.73 0a9.54 9.54 0 00.11-1.33 9.32 9.32 0 00-18.63 0c.002.445.036.89.1 1.33h18.42z" fill="#F3F5F7" fill-rule="nonzero"/><path fill="url(#g)" d="M508.11 117.94h-11.37l2.2-5.16h11.37zm17.16 0H513.9l2.2-5.16h11.37zm-17.16-10.02h-11.37l2.2-5.16h11.37zm17.16 0H513.9l2.2-5.16h11.37zM508.11 97.9h-11.37l2.2-5.16h11.37zm17.16 0H513.9l2.2-5.16h11.37zm-17.16-10.02h-11.37l2.2-5.16h11.37zm17.16 0H513.9l2.2-5.16h11.37z"/><path d="M310.84 32.72a8.89 8.89 0 00-2.82-2 19.41 19.41 0 00-8.06-1.42h-26.31v.08l-3.91-4h-2.81a67.75 67.75 0 002.68 7l-4 2.58 1.8.34 3.56-1.34c.18.13.367.25.56.36a7.64 7.64 0 003.88 1h3.31l-6.28 4.21 2.68.51 21.8-4.72h12.62a1.64 1.64 0 001.3-2.6z" fill="url(#h)" fill-rule="nonzero"/><circle fill="#F7F8F9" fill-rule="nonzero" cx="278.17" cy="32.2" r="1"/><circle fill="#F7F8F9" fill-rule="nonzero" cx="281.7" cy="32.2" r="1"/><circle fill="#F7F8F9" fill-rule="nonzero" cx="285.22" cy="32.2" r="1"/><circle fill="#F7F8F9" fill-rule="nonzero" cx="288.75" cy="32.2" r="1"/><circle fill="#F7F8F9" fill-rule="nonzero" cx="292.28" cy="32.2" r="1"/><circle fill="#F7F8F9" fill-rule="nonzero" cx="295.8" cy="32.2" r="1"/><path d="M310.84 32.72a8.89 8.89 0 00-2.82-2 11 11 0 00-2.4-.82v2.19a1 1 0 001 1h4.45a1 1 0 00-.23-.37z" fill="#F7F8F9" fill-rule="nonzero"/><path fill="#F3F5F7" fill-rule="nonzero" d="M166.73 25.99h9.06v22.99h-9.06z"/><path fill="url(#i)" fill-rule="nonzero" d="M163.47 47.48h15.59v15.89h-15.59z"/><ellipse fill="url(#j)" fill-rule="nonzero" cx="171.27" cy="55.19" rx="3.18" ry="3.17"/><ellipse fill="#F7F8F9" fill-rule="nonzero" cx="306.72" cy="48.98" rx="3.53" ry="3.52"/><ellipse fill="#F7F8F9" fill-rule="nonzero" cx="328.05" cy="48.98" rx="3.53" ry="3.52"/><ellipse fill="#F7F8F9" fill-rule="nonzero" cx="313.26" cy="48.98" rx="4.4" ry="4.39"/><ellipse fill="#F7F8F9" fill-rule="nonzero" cx="321.12" cy="48.98" rx="4.4" ry="4.39"/><ellipse fill="#F7F8F9" fill-rule="nonzero" cx="432.41" cy="71.7" rx="5.31" ry="5.29"/><ellipse fill="#F7F8F9" fill-rule="nonzero" cx="474.76" cy="50.74" rx="5.31" ry="5.29"/><ellipse fill="#F7F8F9" fill-rule="nonzero" cx="442.24" cy="71.7" rx="6.62" ry="6.6"/><ellipse fill="#F7F8F9" fill-rule="nonzero" cx="453.72" cy="50.74" rx="6.62" ry="6.6"/><ellipse fill="#F7F8F9" fill-rule="nonzero" cx="465.2" cy="50.74" rx="6.62" ry="6.6"/><path fill="url(#k)" fill-rule="nonzero" d="M157.44 62.97h27.66v93.93h-27.66z"/><path fill="#F3F5F7" fill-rule="nonzero" d="M215.76 35.45h-4.93l1.57-32.18h2.02z"/><ellipse fill="#F3F5F7" fill-rule="nonzero" cx="213.3" cy="3.3" rx="3.05" ry="3.04"/><path fill="#F3F5F7" fill-rule="nonzero" d="M206.14 29.27h14.31v31.77h-14.31z"/><path fill="url(#l)" fill-rule="nonzero" d="M200.23 45.41h26.13v31.77h-26.13z"/><ellipse fill="url(#m)" fill-rule="nonzero" cx="213.3" cy="59.27" rx="5.32" ry="5.3"/><path fill="url(#n)" fill-rule="nonzero" d="M235.56 133.48V76.47h-44.82v57.01h-39.08v23.42h97.35v-23.42z"/><path fill="url(#o)" fill-rule="nonzero" d="M143.22 156.9h-3.95l.46-12.84h3.03z"/><path d="M143 134a5.55 5.55 0 10-3.54 0 5.55 5.55 0 103.54 0z" fill="url(#p)" fill-rule="nonzero"/><path fill="url(#q)" fill-rule="nonzero" d="M128.24 156.9h-3.96l.47-12.84h3.03z"/><path d="M128.05 134a5.56 5.56 0 10-3.53 0 5.56 5.56 0 103.53 0z" fill="url(#r)" fill-rule="nonzero"/><path fill="url(#q)" fill-rule="nonzero" d="M339.42 156.9h-3.96l.46-12.84h3.04z"/><path d="M339.23 134a5.55 5.55 0 10-3.54 0 5.55 5.55 0 103.54 0z" fill="url(#s)" fill-rule="nonzero"/><path fill="url(#t)" fill-rule="nonzero" d="M473.06 156.9h-4.28l.5-13.88h3.28z"/><ellipse fill="url(#f)" fill-rule="nonzero" cx="470.92" cy="130.65" rx="12.75" ry="12.72"/><ellipse fill="url(#m)" fill-rule="nonzero" cx="171.27" cy="73.94" rx="5.32" ry="5.3"/><path fill="url(#u)" fill-rule="nonzero" d="M451.23 156.9h-42.82V31.2l42.82 10.68z"/><path fill="url(#v)" fill-rule="nonzero" d="M398.85 156.9h-42.83V71.24l42.83-9.38z"/><path fill="url(#c)" d="M373.14 117h-11.37l2.2-5.16h11.37zm17.16 0h-11.37l2.2-5.16h11.37z"/><path fill="url(#g)" d="M373.14 106.98h-11.37l2.2-5.16h11.37zm17.16 0h-11.37l2.2-5.16h11.37zm-17.16-10.02h-11.37l2.2-5.16h11.37zm17.16 0h-11.37l2.2-5.16h11.37zm-17.16-10.02h-11.37l2.2-5.16h11.37zm17.16 0h-11.37l2.2-5.16h11.37z"/><path fill="url(#w)" d="M425.28 117.93h-11.36l2.2-5.17h11.36zm17.16 0h-11.36l2.19-5.17h11.37z"/><path fill="url(#x)" d="M425.28 107.9h-11.36l2.2-5.16h11.36zm17.16 0h-11.36l2.19-5.16h11.37z"/><path fill="url(#y)" d="M425.28 98.43h-11.36l2.2-5.16h11.36zm17.16 0h-11.36l2.19-5.16h11.37zm-17.16-10.02h-11.36l2.2-5.16h11.36zm17.16 0h-11.36l2.19-5.16h11.37z"/><path fill="url(#z)" d="M425.28 78.39h-11.36l2.2-5.16h11.36zm17.16 0h-11.36l2.19-5.16h11.37zm-17.16-10.02h-11.36l2.2-5.16h11.36zm17.16 0h-11.36l2.19-5.16h11.37zm-17.16-10.02h-11.36l2.2-5.16h11.36zm17.16 0h-11.36l2.19-5.16h11.37z"/><path fill="url(#A)" d="M227.62 89.83h-31.29l2.2-5.17h31.29z"/><path fill="url(#B)" d="M227.62 99.66h-31.29l2.2-5.16h31.29z"/><path d="M378 156.9c.073-.44.11-.884.11-1.33a9.32 9.32 0 00-18.63 0c0 .446.037.89.11 1.33H378z" fill="#F3F5F7" fill-rule="nonzero"/><path d="M365.15 156.9a9.54 9.54 0 00.11-1.33 9.32 9.32 0 00-18.63 0c.002.445.036.89.1 1.33h18.42zm105.77 0c.073-.44.11-.884.11-1.33a9.32 9.32 0 00-18.63 0c0 .446.037.89.11 1.33h18.41z" fill="#F3F5F7" fill-rule="nonzero"/><path d="M458.07 156.9a9.54 9.54 0 00.11-1.33 9.32 9.32 0 00-18.63 0c.002.445.036.89.1 1.33h18.42zm-105.77 0a9.56 9.56 0 00.1-1.33 9.32 9.32 0 00-18.63 0c.006.445.042.89.11 1.33h18.42zm-69.95 0a9.54 9.54 0 00.11-1.33 9.32 9.32 0 00-18.63 0c.002.445.036.89.1 1.33h18.42z" fill="#F3F5F7" fill-rule="nonzero"/><path d="M269.5 156.9a9.56 9.56 0 00.1-1.33 9.32 9.32 0 00-18.63 0c.006.445.042.89.11 1.33h18.42z" fill="#F3F5F7" fill-rule="nonzero"/><path d="M256.64 156.9c.073-.44.11-.884.11-1.33a9.32 9.32 0 00-18.63 0c0 .446.037.89.11 1.33h18.41z" fill="#F3F5F7" fill-rule="nonzero"/><path d="M243.36 156.9a9.54 9.54 0 00.11-1.33 9.32 9.32 0 00-18.63 0c.002.445.036.89.1 1.33h18.42z" fill="#F3F5F7" fill-rule="nonzero"/><path d="M230.51 156.9a9.56 9.56 0 00.1-1.33 9.32 9.32 0 00-18.63 0c.006.445.042.89.11 1.33h18.42z" fill="#F3F5F7" fill-rule="nonzero"/><path d="M217.65 156.9c.073-.44.11-.884.11-1.33a9.32 9.32 0 00-18.63 0c0 .446.037.89.11 1.33h18.41zm-44.53 0a9.56 9.56 0 00.1-1.33 9.32 9.32 0 00-18.63 0c0 .446.037.89.11 1.33h18.42z" fill="#F3F5F7" fill-rule="nonzero"/><path d="M160.26 156.9a9.54 9.54 0 00.11-1.33 9.32 9.32 0 00-18.63 0c.002.445.036.89.1 1.33h18.42z" fill="#F3F5F7" fill-rule="nonzero"/><ellipse fill="#F7F8F9" fill-rule="nonzero" cx="76.36" cy="63.21" rx="2.64" ry="2.63"/><ellipse fill="#F7F8F9" fill-rule="nonzero" cx="92.27" cy="63.21" rx="2.64" ry="2.63"/><ellipse fill="#F7F8F9" fill-rule="nonzero" cx="81.24" cy="63.21" rx="3.28" ry="3.27"/><ellipse fill="#F7F8F9" fill-rule="nonzero" cx="87.1" cy="63.21" rx="3.28" ry="3.27"/><path d="M386.43 193.85c0-.06 0-.05-.06 0" fill="#829CA9" fill-rule="nonzero"/><path d="M19.39 100.76c1.594.161 3.203.1 4.78-.18a6.34 6.34 0 001.88-.64c.45-.3.69-.49.79-.89a3.24 3.24 0 00-.22-1.81 11.78 11.78 0 00-1.15-2.18 31.72 31.72 0 00-3.36-4.18l1.33-1.46a34.78 34.78 0 014.29 3.91 15.58 15.58 0 011.85 2.5 7 7 0 011 3.58 5.36 5.36 0 01-1.93 3.79c-.932.786-2 1.396-3.15 1.8a22.3 22.3 0 01-6.24 1.24l.13-5.48z" fill="#485CC7" fill-rule="nonzero"/><ellipse fill="#5D7079" fill-rule="nonzero" transform="rotate(-19.344 24.21 87.287)" cx="24.21" cy="87.287" rx="2.281" ry="2.819"/><path d="M18.69 90l5-3.85c.49-.36 1.2 0 1.64.92l1.11 2.29a1.58 1.58 0 01-1 2.21L20 93.19 18.69 90z" fill="#6F8691" fill-rule="nonzero"/><ellipse fill="#6F8691" fill-rule="nonzero" transform="rotate(-23.6 19.562 91.453)" cx="19.562" cy="91.453" rx="1.4" ry="1.76"/><ellipse fill="#5D7079" fill-rule="nonzero" transform="rotate(-23.6 19.523 91.514)" cx="19.523" cy="91.514" rx="1" ry="1.21"/><ellipse fill="#6F8691" fill-rule="nonzero" transform="rotate(-19.23 24.97 88.612)" cx="24.971" cy="88.612" rx="2.26" ry="2.79"/><ellipse fill="#5D7079" fill-rule="nonzero" transform="rotate(-19.23 28.726 88.266)" cx="28.726" cy="88.266" rx="2.29" ry="2.83"/><path d="M22 89.86l5-3.85c.5-.36 1.2 0 1.65.92l1.11 2.29a1.59 1.59 0 01-1 2.21l-5.51 1.65L22 89.86z" fill="#829CA9" fill-rule="nonzero"/><ellipse fill="#6F8691" fill-rule="nonzero" transform="rotate(-23.6 22.862 91.332)" cx="22.862" cy="91.332" rx="1.4" ry="1.76"/><ellipse fill="#5D7079" fill-rule="nonzero" transform="rotate(-23.6 22.814 91.406)" cx="22.814" cy="91.406" rx="1" ry="1.21"/><ellipse fill="#829CA9" fill-rule="nonzero" transform="rotate(-19.23 28.27 88.5)" cx="28.27" cy="88.501" rx="2.26" ry="2.79"/><path d="M19.37 100.37a48.44 48.44 0 005.56-.55 23.61 23.61 0 005.19-1.31 5.73 5.73 0 001.73-1c.1-.08.11-.13.18-.19.07-.06.09-.09.08-.14v-.09a.66.66 0 010-.14c0-.08-.05-.22-.08-.35a6.06 6.06 0 00-1.41-1.85c-.32-.3-.69-.59-1-.9l-1.14-.84 1.17-2 1.39.71c.45.27.92.53 1.37.83A8.9 8.9 0 0135 95c.208.31.373.646.49 1l.17.58v.66a4.2 4.2 0 01-.16 1.31 6 6 0 01-.51 1.11 8.88 8.88 0 01-2.84 2.68 28.05 28.05 0 01-6 2.69 52.47 52.47 0 01-6.09 1.67l-.69-6.33z" fill="#5A80F9" fill-rule="nonzero"/><circle fill="#FAD6C7" fill-rule="nonzero" cx="27.49" cy="90.6" r="1.41"/><path d="M23.63 94l-1.84-3.79c-.63-.73-1.66-.66-3.4.08a3.34 3.34 0 00-1.89 4.31l1.21 2.79 4.5-.48 1.57-1.34-.15-1.57z" fill="#FCD3B9" fill-rule="nonzero"/><path d="M23.39 93.46c-.33.22-.57.66-.8 1.65l1.27-.11h.09" fill="#FFB619" fill-rule="nonzero"/><circle fill="#FCD3B9" fill-rule="nonzero" cx="20.9" cy="93.43" r="1"/><path d="M23.39 93.51l.14.9a3.15 3.15 0 01-.38.55c-.93-.15-2.27-.76-2.28-1.72 0-.4.82 0 .94-.08.65-.56-1.36-1.83-1.18-2.53.08-.29.79-.81 1.21-.33a3.07 3.07 0 00-4.77-.06c0-.12-.13-.55-.17-.68a1.83 1.83 0 00-2.33-1.07 1.791 1.791 0 001 3.44 3.07 3.07 0 00.21 2l1.37 3.33s.87 3.1 4.64 1.69a3.57 3.57 0 001.84-4.87l-.24-.57z" fill="#FFB619" fill-rule="nonzero"/><ellipse fill="#E2E6E8" fill-rule="nonzero" cx="25.6" cy="170.84" rx="21.9" ry="2.3"/><path fill="#FAD6C7" fill-rule="nonzero" d="M30.74 169.23l-2.19.12-.69-9.68 3.22-2.08zm-22.61-1.85l-2.19-1.11 2.56-4.46 3.22.55z"/><path d="M32.3 114.15c.3 4.16.46 8.15.59 12.22.13 4.07.19 8.1.18 12.14 0 8.093-.227 16.167-.68 24.22h-4.33c-.34-8-.907-15.947-1.7-23.84-.39-4-.85-7.92-1.36-11.85-.51-3.93-1.08-7.91-1.74-11.7l9.04-1.19z" fill="#6F8691" fill-rule="nonzero"/><path d="M26.12 115.4c-.17 2.36-.44 4.42-.74 6.59s-.69 4.27-1.09 6.38c-.82 4.23-1.86 8.4-3.08 12.51A112.57 112.57 0 0116.9 153a104.6 104.6 0 01-5.7 11.53l-3.84-2a97.2 97.2 0 004.35-11.42 106.58 106.58 0 003-11.83c.79-4 1.39-8 1.78-12.06.19-2 .35-4 .45-6.05.1-2.05.15-4.09.1-5.91l9.08.14z" fill="#6F8691" fill-rule="nonzero"/><rect fill="#829CA9" fill-rule="nonzero" x="27.1" y="161.1" width="5.37" height="2.96" rx=".47"/><rect fill="#829CA9" fill-rule="nonzero" transform="rotate(23.36 10.079 163.157)" x="7.394" y="161.677" width="5.37" height="2.96" rx=".47"/><path d="M35 167.22c-.45-.17-2.86-.2-3.21-.31 0-.4-.07-.66-.07-.66l-3.2.17c-.77 4-.34 4.22-.34 4.22a37.4 37.4 0 003.93-.08 27.36 27.36 0 003.54-1.64s-.24-1.53-.65-1.7zm-23.26 1.05s-2.28-1.21-2.56-1.45c.11-.38.19-.63.19-.63l-3-1.11-1.71 3.22s4.88 1.57 5.93 1.76l2.52-.13s.17-1.69-1.37-1.66z" fill="#253655" fill-rule="nonzero"/><path d="M24.2 123.48l5.3-1.2c3-.69 4.09.26 3.79-1.06l-2.41-17.06c-.61-2.71-2.23-4.87-5.81-4.32-1.23.19-2.46.39-3.7.47l-3.09.21c-3 .69-4.33 3.82-3.65 6.86l1.53 13.54c.69 3.08 5 3.25 8.04 2.56z" fill="#5A80F9" fill-rule="nonzero"/></g><g transform="translate(0 79)"><ellipse fill="#E2E6E8" fill-rule="nonzero" cx="327.29" cy="92.79" rx="19.71" ry="2.41"/><ellipse fill="#E2E6E8" fill-rule="nonzero" cx="376.93" cy="92.79" rx="19.71" ry="2.41"/><ellipse fill="#E2E6E8" fill-rule="nonzero" cx="22.56" cy="106.6" rx="15.27" ry="1.84"/><path d="M16.51 102.26l1.55 3.57s-3.43.27-5.38-1l-.4-2.42 4.23-.15z" fill="#5A80F9" fill-rule="nonzero"/><path fill="#5A80F9" fill-rule="nonzero" d="M13.96 103.61l-.14 2.22-1.41.27-.13-3.7h1.07"/><ellipse fill="#E2E6E8" fill-rule="nonzero" cx="598.76" cy="99.91" rx="45.22" ry="1.69"/><path d="M556.62 91.43c0-.09-.06-.09-.09 0" fill="#829CA9" fill-rule="nonzero"/><path d="M605.12 97.45a2.9 2.9 0 01-3.76-1.69s-2.58.86-3.46 1.12a6.32 6.32 0 01.91 3.92l.73.34c.05.14 1.11-.39 1.31-.45l6.41-2.13a1.79 1.79 0 00-2.14-1.11z" fill="#66432F" fill-rule="nonzero"/><path fill="#66432F" fill-rule="nonzero" d="M598.91 101.27l1.92-.06 6.64-1.94-.31-1.02-8.42 2.47z"/><path d="M587.08 53.66c.43.59.65 1 .94 1.41.29.41.53.86.79 1.29.49.86 1 1.71 1.42 2.57.92 1.71 1.73 3.43 2.51 5.16 1.55 3.47 2.87 7 4.06 10.53 1.19 3.53 2.17 7.12 3 10.72.46 1.79.81 3.61 1.21 5.4l1 5.43-5.01 1.19-1.63-5.07c-.61-1.67-1.16-3.35-1.81-5a132.85 132.85 0 00-4.15-9.7c-1.53-3.15-3.16-6.22-5-9.16-.9-1.46-1.82-2.9-2.8-4.27-.47-.69-1-1.35-1.47-2-.25-.31-.5-.64-.75-.93a9 9 0 00-.67-.76l8.36-6.81z" fill="#A8AAAC" fill-rule="nonzero"/><path d="M589.85 55.37c-.19.64-.35 1.1-.53 1.61l-.53 1.49c-.36 1-.73 1.94-1.12 2.88-.77 1.91-1.59 3.77-2.44 5.61-1.69 3.69-3.53 7.27-5.46 10.8-1.93 3.53-4 7-6.17 10.31-2.17 3.31-4.43 6.65-6.75 9.88l-4.42-2.85c1.88-3.39 3.71-6.8 5.39-10.28 1.68-3.48 3.24-7 4.72-10.53 1.48-3.53 2.77-7.15 4-10.76.58-1.81 1.14-3.62 1.63-5.43.25-.91.48-1.81.7-2.71.22-.9.44-1.85.56-2.55l10.42 2.53z" fill="#D3D5D8" fill-rule="nonzero"/><path d="M589 40.23c0 .21.21 0 .35.38.14.38.33.71.51 1.06.36.71.77 1.4 1.2 2.09a24 24 0 003 3.82 18.88 18.88 0 003.85 3.08 19.21 19.21 0 004.62 2l-.23 1.69a21.38 21.38 0 01-5.62-.93 23.11 23.11 0 01-5.32-2.4 29.34 29.34 0 01-4.7-3.56c-.71-.68-1.42-1.38-2.08-2.14-.33-.37-.66-.76-1-1.16a14.28 14.28 0 01-1-1.34l6.42-2.59z" fill="#008EC0" fill-rule="nonzero"/><path d="M582.81 45.15c.13 0 0 0 0 0a.61.61 0 00-.19-.06 2.88 2.88 0 00-.46-.09 6 6 0 00-1-.07 8.65 8.65 0 00-2.27.33 12.22 12.22 0 00-4.47 2.48 19.23 19.23 0 00-2 1.93c-.63.7-1.21 1.48-1.81 2.25-.6.77-1.1 1.63-1.61 2.48l-1.53 2.6-1.61-.58.87-3c.34-1 .74-2 1.11-3 .37-1 .91-2 1.45-2.92a23.85 23.85 0 011.86-2.8 17.41 17.41 0 015.33-4.71 15.2 15.2 0 013.58-1.42 12.93 12.93 0 012-.35c.35 0 .69-.06 1.07-.05.19-.01.38-.01.57 0a5.7 5.7 0 01.74.08l-1.63 6.9z" fill="#00B9FF" fill-rule="nonzero"/><circle fill="#C58F62" fill-rule="nonzero" cx="565.96" cy="59.08" r="1.32"/><path d="M589.38 57.21L579 54s1.58-6.59-1.07-11.39c0 0-1.82-3.55 3.77-4.54 1.88-.34 16.21.24 7.68 19.14z" fill="#00B9FF" fill-rule="nonzero"/><path d="M568.43 100c-.26-.4-.85-.47-1.5-.77-.49-.23-1.66-.73-1.66-.73l.57-.95-3.51-1.9-1.26 2.35-.25.44a.76.76 0 00.2 1l2.29 1.75h4.46a.79.79 0 00.66-1.19z" fill="#66432F" fill-rule="nonzero"/><path d="M641.48 95.71a.62.62 0 01-.61-.49l-.9-4.31a.624.624 0 111.22-.26l.9 4.31a.62.62 0 01-.48.74l-.13.01zm2.01.4a.6.6 0 01-.26-.05.62.62 0 01-.31-.82l3.1-7a.63.63 0 01.83-.31.62.62 0 01.31.82l-3.1 7a.62.62 0 01-.57.36zm2.34.89a.59.59 0 01-.43-.17.62.62 0 010-.88l3.41-3.52a.622.622 0 11.89.87l-3.4 3.51a.61.61 0 01-.47.19z" fill="#D3D5D8" fill-rule="nonzero"/><circle fill="#C58F62" fill-rule="nonzero" cx="604.09" cy="53.44" r="1.32"/><path d="M596.48 49.64l.1 4.83 4.87.35.17-2.49a26.72 26.72 0 01-5.14-2.69zm11.69 14.82H608a1.23 1.23 0 01-1-1.37 1.21 1.21 0 011.39-1l-.12.61a.58.58 0 00-.41.11.55.55 0 00-.24.35.51.51 0 00.11.42.55.55 0 00.83.09 1.62 1.62 0 00.53-1.07 2.4 2.4 0 00-.54-1.85 1.93 1.93 0 01-.88 1.21c-.4.195-.87.195-1.27 0a1.11 1.11 0 01-.63-.79 1.38 1.38 0 01.87-1.41 2.1 2.1 0 011.4-.05 2.35 2.35 0 00-.7-1.59 1.82 1.82 0 00-.67-.36 1.54 1.54 0 010 .37c.016.471-.2.92-.58 1.2a1.12 1.12 0 01-1.12.14.92.92 0 01-.51-.77 1.49 1.49 0 01.59-1.28 2 2 0 01.63-.29 1.9 1.9 0 00-.21-.19 8.24 8.24 0 00-3.46-.89 51 51 0 00-7.53.6 40.71 40.71 0 01-13.82 0l.11-.61c4.51.773 9.12.773 13.63 0a53.08 53.08 0 017.62-.6 8.66 8.66 0 013.82 1 2 2 0 01.56.64 2.26 2.26 0 011.32.58 3 3 0 01.91 2.35c.139.099.27.21.39.33a3 3 0 01.7 2.34 2.26 2.26 0 01-.77 1.51 1.27 1.27 0 01-.78.27zm-.81-4.23c-.176 0-.35.038-.51.11a.75.75 0 00-.5.72.46.46 0 00.28.33c.22.11.48.11.7 0a1.45 1.45 0 00.63-1 1.62 1.62 0 00-.6-.16zM606 57.71a1.32 1.32 0 00-.58.22.86.86 0 00-.33.71.31.31 0 00.16.27.49.49 0 00.48-.09.82.82 0 00.33-.7 1.51 1.51 0 00-.06-.41z" fill="#5D7079" fill-rule="nonzero"/><rect fill="#829CA9" fill-rule="nonzero" transform="rotate(15.27 580.037 55.794)" x="577.252" y="52.139" width="5.57" height="7.31" rx="1.25"/><path d="M608.17 64.46H608a1.23 1.23 0 01-1-1.37 1.21 1.21 0 011.39-1l-.12.61a.58.58 0 00-.41.11.55.55 0 00-.24.35.51.51 0 00.11.42.55.55 0 00.83.09 1.62 1.62 0 00.53-1.07 2.4 2.4 0 00-.54-1.85 1.93 1.93 0 01-.88 1.21c-.4.195-.87.195-1.27 0a1.11 1.11 0 01-.63-.79 1.38 1.38 0 01.87-1.41 2.1 2.1 0 011.4-.05 2.35 2.35 0 00-.7-1.59l.41-.46a3 3 0 01.91 2.35c.139.099.27.21.39.33a3 3 0 01.7 2.34 2.26 2.26 0 01-.77 1.51 1.27 1.27 0 01-.81.27zm-.81-4.23c-.176 0-.35.038-.51.11a.75.75 0 00-.5.72.46.46 0 00.28.33c.22.11.48.11.7 0a1.45 1.45 0 00.63-1 1.62 1.62 0 00-.6-.16z" fill="#5D7079" fill-rule="nonzero"/><path d="M610.43 69.26h-.18a1.17 1.17 0 01-.77-.48 1.21 1.21 0 01-.22-.89c.06-.31.24-.583.5-.76a1.15 1.15 0 01.89-.2l-.12.61a.53.53 0 00-.41.1.55.55 0 00-.24.36.5.5 0 00.11.41.53.53 0 00.36.23.6.6 0 00.47-.13 1.66 1.66 0 00.53-1.07 2.39 2.39 0 00-.54-1.86 1.91 1.91 0 01-.88 1.21 1.39 1.39 0 01-1.27 0A1.09 1.09 0 01608 66a1.37 1.37 0 01.87-1.4 2 2 0 011.41-.05 1.84 1.84 0 00-.8-1.61l.32-.53a2.5 2.5 0 011.09 2.44 2 2 0 01.39.33 3 3 0 01.7 2.34 2.26 2.26 0 01-.77 1.5 1.28 1.28 0 01-.78.24zm-.81-4.23a1.25 1.25 0 00-.51.1.76.76 0 00-.5.72.5.5 0 00.28.34.82.82 0 00.7 0 1.45 1.45 0 00.63-1 1.57 1.57 0 00-.6-.19v.03z" fill="#5D7079" fill-rule="nonzero"/><path d="M612.53 74.07h-.18a1.19 1.19 0 01-.78-.48 1.16 1.16 0 01-.21-.89 1.2 1.2 0 01.49-.76 1.15 1.15 0 01.89-.2l-.11.61a.59.59 0 00-.42.1.55.55 0 00-.24.36.58.58 0 00.11.41.55.55 0 00.36.24.61.61 0 00.47-.14 1.67 1.67 0 00.54-1.07 2.39 2.39 0 00-.55-1.86 2 2 0 01-.89 1.21 1.39 1.39 0 01-1.27 0 1.05 1.05 0 01-.62-.79 1.37 1.37 0 01.86-1.4 2 2 0 011.41-.05 1.81 1.81 0 00-.8-1.61l.33-.53a2.52 2.52 0 011.09 2.44c.142.09.27.202.38.33a3 3 0 01.71 2.34 2.22 2.22 0 01-.78 1.5 1.23 1.23 0 01-.79.24zm-.82-4.23a1.29 1.29 0 00-.51.1.78.78 0 00-.5.73.48.48 0 00.28.33.82.82 0 00.7 0c.342-.23.57-.593.63-1a1.57 1.57 0 00-.6-.16z" fill="#5D7079" fill-rule="nonzero"/><path d="M602.91 55.61a5.11 5.11 0 012.74 1.08 1.57 1.57 0 01.25 2.39.83.83 0 01-.8.11c-.55-.26-.38-1.16.12-1.51l.15-.1" stroke="#5D7079" stroke-width=".62"/><path d="M613.73 76.48h-.18a1.22 1.22 0 01-.77-.49 1.18 1.18 0 01-.22-.88 1.21 1.21 0 011.39-1l-.12.61a.6.6 0 00-.42.11.59.59 0 00-.24.35.6.6 0 00.11.42.62.62 0 00.36.23.55.55 0 00.47-.14 1.62 1.62 0 00.54-1.07 2.4 2.4 0 00-.54-1.85 2 2 0 01-.89 1.21 1.43 1.43 0 01-1.26 0 1.13 1.13 0 01-.63-.79 1.37 1.37 0 01.87-1.41 2 2 0 011.39 0 2.33 2.33 0 00-.7-1.59l.42-.46a3 3 0 01.91 2.35 2 2 0 01.38.33 3 3 0 01.71 2.34 2.27 2.27 0 01-.78 1.51 1.22 1.22 0 01-.8.22zm-.81-4.23c-.176 0-.35.038-.51.11a.76.76 0 00-.51.72.47.47 0 00.29.33.76.76 0 00.69 0c.35-.224.583-.59.64-1a1.62 1.62 0 00-.6-.16z" fill="#5D7079" fill-rule="nonzero"/><path d="M616.23 81.21h-.18a1.21 1.21 0 01-1-1.37 1.15 1.15 0 01.5-.76 1.2 1.2 0 01.89-.21l-.12.62a.53.53 0 00-.41.1.55.55 0 00-.24.35.51.51 0 00.11.42.53.53 0 00.35.23.58.58 0 00.47-.13 1.63 1.63 0 00.54-1.08 2.42 2.42 0 00-.54-1.85 1.91 1.91 0 01-.88 1.21 1.39 1.39 0 01-1.27 0 1.09 1.09 0 01-.63-.79 1.37 1.37 0 01.87-1.4 2 2 0 011.4-.06 1.81 1.81 0 00-.79-1.6l.32-.53a3.75 3.75 0 001.48 2.77 3 3 0 01.7 2.34 2.26 2.26 0 01-.77 1.5 1.27 1.27 0 01-.8.24zm-.81-4.22a1.25 1.25 0 00-.51.1c-.29.13-.56.43-.51.72a.53.53 0 00.29.34.79.79 0 00.69 0c.35-.224.583-.59.64-1a1.61 1.61 0 00-.6-.15v-.01z" fill="#5D7079" fill-rule="nonzero"/><path d="M618.48 86.06h-.18a1.16 1.16 0 01-.78-.48 1.21 1.21 0 01-.22-.89 1.23 1.23 0 01.5-.76 1.15 1.15 0 01.89-.2l-.11.61a.59.59 0 00-.42.1.55.55 0 00-.24.36.58.58 0 00.11.41.55.55 0 00.36.24.65.65 0 00.47-.14 1.62 1.62 0 00.53-1.07 2.35 2.35 0 00-.54-1.86 2 2 0 01-.89 1.21c-.4.195-.87.195-1.27 0a1.05 1.05 0 01-.62-.79 1.36 1.36 0 01.86-1.4 2 2 0 011.41-.05 1.84 1.84 0 00-.8-1.61l.33-.53a2.54 2.54 0 011.09 2.44c.142.09.27.202.38.33a3 3 0 01.71 2.34 2.27 2.27 0 01-.78 1.5 1.23 1.23 0 01-.79.24zm-.82-4.23a1.29 1.29 0 00-.51.1.78.78 0 00-.5.73.5.5 0 00.28.33.82.82 0 00.7 0 1.49 1.49 0 00.63-1 1.57 1.57 0 00-.6-.16z" fill="#5D7079" fill-rule="nonzero"/><path fill="#829CA9" fill-rule="nonzero" d="M622.345 92.532l1.122-.55 3.226 6.582-1.122.55zm-2.225-4.542L604.5 56.12l-8.72-.49.07-1.24 9.45.52.16.33 15.78 32.2z"/><path d="M605.21 57.67a1.94 1.94 0 012.16.08" stroke="#5D7079" stroke-width=".62"/><path d="M606.55 60.54l-.35-.52c.73-.51 1.7-.51 2.43 0l-.37.51a1.47 1.47 0 00-1.71.01zm1.2 2.46l-.45-.42a2 2 0 012.53-.11l-.36.51a1.36 1.36 0 00-1.72.02zm2.89 2.38a1.67 1.67 0 00-1.15-.33 1 1 0 00-.64.27l-.49-.38a1.46 1.46 0 011.07-.51 2.3 2.3 0 011.63.48l-.42.47zm1.09 2.46a1.64 1.64 0 00-1.15-.33 1 1 0 00-.64.27l-.49-.38a1.5 1.5 0 011.08-.51 2.26 2.26 0 011.62.48l-.42.47zm1.43 2.64a1.58 1.58 0 00-2-.49l-.3-.55a2.21 2.21 0 012.82.69l-.52.35zm1.12 2.52c-.83-1-1.51-.82-2-.55l-.29-.54a2 2 0 012.79.69l-.5.4zm1.33 2.13a1.77 1.77 0 00-2.19-.3l-.32-.54a2.38 2.38 0 013 .41l-.49.43zm.86 2.3a1.38 1.38 0 00-1.85-.15l-.38-.49a2 2 0 012.63.15l-.4.49zm1.18 2.39a1.43 1.43 0 00-1.84-.15l-.39-.48a2.08 2.08 0 012.66.17l-.43.46zm1.07 2.42a1.43 1.43 0 00-1.84-.15l-.4-.49a2.09 2.09 0 012.66.18l-.42.46zM631 98.17c-4.75 0-7.39-.62-8.65-2a3.84 3.84 0 01-.85-3.2c.51-4.65-.54-7.59-1.81-8.45a1.47 1.47 0 00-1.61-.07l-.29-.55a2.08 2.08 0 012.25.11c1.74 1.17 2.55 4.72 2.08 9a3.26 3.26 0 00.68 2.71c1.3 1.4 4.5 1.94 10.37 1.75v.62c-.72.06-1.45.08-2.17.08z" fill="#5D7079" fill-rule="nonzero"/><path fill="#829CA9" fill-rule="nonzero" d="M620.114 87.966l1.123-.55 2.231 4.552-1.122.55z"/><circle fill="#EDAC80" fill-rule="nonzero" cx="702.1" cy="91.3" r="1.58"/><circle fill="#EDAC80" fill-rule="nonzero" cx="686.22" cy="51.17" r="1.44"/><ellipse fill="#E2E6E8" fill-rule="nonzero" cx="687.53" cy="116.18" rx="16.34" ry="1.97"/><path d="M689.41 81.34c-.48 5.66-.91 11.37-1.27 17.06-.18 2.85-.34 5.69-.45 8.54-.11 2.85-.22 5.69-.18 8.5l-2.58.26c-.51-2.87-.88-5.74-1.24-8.6-.36-2.86-.66-5.73-1-8.59a759 759 0 01-1.53-17.22l8.25.05zm10.39-.59c-.47 2.82-.9 5.74-1.3 8.62-.4 2.88-.76 5.79-1.07 8.69-.31 2.9-.56 5.8-.72 8.7a68.59 68.59 0 000 8.6l-3 .48a70.42 70.42 0 01-1.29-9c-.28-3-.44-6-.56-9-.12-3-.18-6-.2-8.95-.02-2.95 0-5.94 0-9l8.14.86z" fill="#EDAC80" fill-rule="nonzero"/><path d="M692 63s17 20.46 10 26.35h-1.56l-9.65-26.77L692 63z" fill="#77D9F7" fill-rule="nonzero"/><path d="M686.93 70.47c.18.25.35.5.52.76a6.54 6.54 0 001.87 2.08c1.18.69 2.71.51 4.31.24l3.2-.54c-.6-1.69-1.16-3.23-1.64-4.57h-.28a8.71 8.71 0 01-5.29-1.8 8.49 8.49 0 01-2.75-3.77l.1.68a35.06 35.06 0 00-1.78 5 12.61 12.61 0 011.74 1.92zm-4.29 13.93a3.9 3.9 0 00-1.62-.57c-2.26 8.81-4.24 17.1-4.24 17.1 1.147.4 2.297.733 3.45 1a23 23 0 004.27-11.89c.11-1.56 0-4.4-1.86-5.64z" fill="#485CC7" fill-rule="nonzero"/><path d="M687.65 80.63c.13.27.26.56.39.84.51 1.17 1 2.27 2 2.66a3 3 0 002.87-.79 11 11 0 001.58-1.85c.25-.33.5-.67.76-1a10.66 10.66 0 013.25-2.66c-.42-1.28-.85-2.52-1.26-3.71l-3.39.57a15.25 15.25 0 01-2.47.26 5 5 0 01-2.63-.64 7.39 7.39 0 01-2.25-2.44c-.16-.24-.33-.49-.5-.72a10.11 10.11 0 00-1.17-1.36c-.54 1.85-1.13 4-1.74 6.21a10.29 10.29 0 014.56 4.63zm2.68-14.88a7.55 7.55 0 004.43 1.54c-.85-2.3-1.4-3.72-1.4-3.72h-.13l-.1-1.53h-5.34a7.54 7.54 0 002.54 3.71z" fill="#485CC7" fill-rule="nonzero"/><path d="M696.47 96.73c-2.21 1-4.27 3.42-3.94 6.06l-1.16.15c-.4-3.2 2-6.08 4.61-7.28a15.3 15.3 0 017.39-1c-.65-2.92-1.55-6.18-2.54-9.46a42.59 42.59 0 01-5.19 5.55l-1.55 1.49c-2.72 2.65-5.87 6.25-6.14 10.59l-1.17-.08c.3-4.73 3.62-8.55 6.49-11.34.51-.51 1-1 1.57-1.51a36.48 36.48 0 005.55-6.12c-.5-1.61-1-3.22-1.53-4.78a9.62 9.62 0 00-2.73 2.28c-.24.31-.48.63-.71.95a12.87 12.87 0 01-1.75 2 4.65 4.65 0 01-2.93 1.21 3.17 3.17 0 01-1.16-.21c-1.42-.57-2.05-2-2.62-3.27l-.36-.81a9.15 9.15 0 00-3.84-4c-.48 1.8-1 3.67-1.45 5.53a4.86 4.86 0 012 .73c2.24 1.48 2.54 4.46 2.39 6.7a24.31 24.31 0 01-4.2 12.1 53.11 53.11 0 0023-.79 37.82 37.82 0 00-.81-5.63 14.58 14.58 0 00-7.22.94z" fill="#485CC7" fill-rule="nonzero"/><path d="M696 95.66c-2.6 1.2-5 4.08-4.61 7.28l1.16-.15c-.33-2.64 1.73-5 3.94-6.06a14.58 14.58 0 017.16-.92c-.08-.39-.17-.79-.26-1.19a15.3 15.3 0 00-7.39 1.04zm-1.16-5.8c-.53.5-1.06 1-1.57 1.51-2.87 2.79-6.19 6.61-6.49 11.34l1.17.08c.27-4.34 3.42-7.94 6.14-10.59l1.55-1.49a42.59 42.59 0 005.19-5.55c-.15-.47-.29-.94-.44-1.42a36.48 36.48 0 01-5.55 6.12zm-11.56-6.43a4.86 4.86 0 00-2-.73c-.1.38-.2.76-.29 1.13a3.9 3.9 0 011.62.57c1.86 1.24 2 4.08 1.86 5.66a23 23 0 01-4.24 11.94l1.24.28a24.31 24.31 0 004.2-12.1c.15-2.29-.15-5.27-2.39-6.75zm3.32-2.29l.36.81c.57 1.26 1.2 2.7 2.62 3.27.37.142.764.213 1.16.21a4.65 4.65 0 002.93-1.21 12.87 12.87 0 001.75-2c.23-.32.47-.64.71-.95a9.62 9.62 0 012.73-2.28c-.13-.38-.25-.75-.38-1.12a10.66 10.66 0 00-3.25 2.66c-.26.32-.51.66-.76 1a11 11 0 01-1.58 1.85 3 3 0 01-2.87.79c-1-.39-1.47-1.49-2-2.66-.13-.28-.26-.57-.39-.84a10.29 10.29 0 00-4.58-4.62c-.1.38-.21.77-.31 1.16a9.15 9.15 0 013.86 3.93zm-.12-9.26a7.39 7.39 0 002.25 2.44 5 5 0 002.63.64 15.25 15.25 0 002.47-.26l3.39-.57-.39-1.12-3.2.54c-1.6.27-3.13.45-4.31-.24a6.54 6.54 0 01-1.87-2.08c-.17-.26-.34-.51-.52-.76a12.61 12.61 0 00-1.74-1.91l-.38 1.24c.43.418.821.873 1.17 1.36.17.23.34.48.5.72zm3.14-5.21a8.71 8.71 0 005.29 1.8h.28c-.15-.4-.29-.79-.43-1.15a7.34 7.34 0 01-7-5.26h-1.06l.14.87a8.49 8.49 0 002.78 3.74z" fill="#00B9FF" fill-rule="nonzero"/><rect fill="#EDAC80" fill-rule="nonzero" transform="rotate(19.97 690.94 56.22)" x="687.65" y="51.691" width="6.58" height="9.06" rx="3.29"/><path d="M687.38 57a1.61 1.61 0 111.1-3" stroke="#CC8719" stroke-width=".65"/><circle fill="#EDAC80" fill-rule="nonzero" cx="689.79" cy="56.43" r="1"/><path d="M688.1 54.31l1.39.66-.67 1.46 3.69.75-1.14-5.1-2.58.28-.76.46a.85.85 0 00.07 1.49z" fill="#253655" fill-rule="nonzero"/><path d="M687.83 108.35l-4.59.45s.22 4 .17 4.41c-.37.12-2.53 0-3 .15-.47.15-.71 1.84-.71 1.84a13.56 13.56 0 003.05 1.56l.77-1.07V117a38.53 38.53 0 004.26.1s-.13-4.68.05-8.75zm9.35 0l-4.59.45s.23 4 .18 4.41c-.38.12-2.54 0-3 .15-.46.15-.7 1.84-.7 1.84a13.4 13.4 0 003 1.56l.78-1.07V117a38.53 38.53 0 004.26.1s-.11-4.68.07-8.75z" fill="#A8AAAC" fill-rule="nonzero"/><path stroke="#CC8719" stroke-width=".65" d="M686.38 55.06l4.37 1.8"/><path d="M684.28 53.11a24.59 24.59 0 00-3.68 4.38 6.07 6.07 0 00-.88 2.15 2 2 0 00.25 1.46 8 8 0 003.38 2.39 26.11 26.11 0 014.86 2.83l.06.05a2 2 0 01-1.15 3.63 12.06 12.06 0 01-6.39-1.55 14 14 0 01-2.92-2.16 8.09 8.09 0 01-2.3-3.55 6.28 6.28 0 01.31-4.46 8.84 8.84 0 012.24-3 15.87 15.87 0 015.66-3.2.58.58 0 01.59 1l-.03.03z" fill="#77D9F7" fill-rule="nonzero"/><path d="M690.42 56.47c1 2.59.3 5.49.73 8.22a14.49 14.49 0 002.08 5.22 9.28 9.28 0 002.38 2.79 6.85 6.85 0 006.42.69A7.86 7.86 0 00704.18 60c-2.16-1.77-5.23-2.38-6.91-4.61-.53-.69-.88-1.5-1.45-2.16a5.86 5.86 0 00-3-1.76h-.14a5.45 5.45 0 00-3.37.68l-.6.31" fill="#253655" fill-rule="nonzero"/><circle fill="#EDAC80" fill-rule="nonzero" cx="690.12" cy="57.01" r="1"/><path d="M190.09 102.92s.43-1 .68-.87a1 1 0 01.56.28c.197.256.355.539.47.84l-1.71-.25z" fill="#E2E6E8" fill-rule="nonzero"/><path fill="#D3D5D8" fill-rule="nonzero" d="M191.8 103.17l.57-.45-.83-.67-.23.23zm-24.95-3.83l.06.05c.147.246.245.517.29.8a.28.28 0 010 .09s-.05.06-.08.08c-.33.18-.3.33-.66.41a7.19 7.19 0 00-.12-1.05c.08-.3.32-.27.51-.38z"/><path d="M165.62 99.55a.6.6 0 01.17-.21c.18-.13.4 0 .57.15.17.15 0 .13 0 .21.074.329.118.663.13 1a.13.13 0 010 .06 1.21 1.21 0 01-.63-.06 3.76 3.76 0 01-.41-.23 1.41 1.41 0 01.17-.92z" fill="#E2E6E8" fill-rule="nonzero"/><path d="M166.13 99.15c.13 0 .23 0 .37.08.147.018.292.055.43.11h-.06a1.84 1.84 0 01-.34.27l-.13.05-.18-.09-.17-.11c-.05 0-.29-.09-.3-.13-.01-.04.3-.15.38-.18zm24.46 2.94c.236.11.485.19.74.24l.21-.28-.69-.08-.26.12z" fill="#F2F5F7" fill-rule="nonzero"/><path d="M174.35 100a.64.64 0 01-.56.31h-2.5v-.05a.8.8 0 01.81-.77h.38" fill="#AA7959" fill-rule="nonzero"/><ellipse fill="#E2E6E8" fill-rule="nonzero" cx="147.65" cy="109.63" rx="10.2" ry="1.47"/><path d="M151.47 106.65l.91 3 1.22.36v-3.29c-.66-.03-1.55-.05-2.13-.07z" fill="#845739" fill-rule="nonzero"/><path d="M151.47 106.65l.91 3 1.22.36v-3.29c-.66-.03-1.55-.05-2.13-.07z" fill="#845739" fill-rule="nonzero"/><path d="M155.29 110.7l-2.78-.21c-.1 0-.17-.13-.18-.27v-.79c0-.14.07-.25.17-.24.164.01.328.03.49.06a5.46 5.46 0 012.43 1 .39.39 0 01.05.28c-.05.12-.11.18-.18.17z" fill="#5D7077" fill-rule="nonzero"/><path d="M153.44 89.22c.34 1.6.56 3.06.76 4.6.2 1.54.36 3 .46 4.57a38.32 38.32 0 01-.39 9.3l-3.16-.31a34.82 34.82 0 00-1.41-8.17c-.39-1.35-.82-2.69-1.3-4-.48-1.31-1-2.68-1.52-3.87l6.56-2.12z" fill="#77D9F7" fill-rule="nonzero"/><path d="M143.25 105.75l-1.34 2.66 1.09.59 2.16-2.25c-.63-.37-1.27-.69-1.91-1z" fill="#845739" fill-rule="nonzero"/><circle fill="#845739" fill-rule="nonzero" cx="135.77" cy="82.48" r="1"/><ellipse fill="#845739" fill-rule="nonzero" transform="rotate(-10.7 147.015 81.217)" cx="147.015" cy="81.217" rx="3.68" ry="3.83"/><path d="M143.51 110.84l-2-2a.25.25 0 010-.32l.49-.61c.09-.11.22-.14.29-.08a3.8 3.8 0 01.33.37 5.18 5.18 0 011.18 2.35.34.34 0 01-.14.25.17.17 0 01-.15.04z" fill="#5D7077" fill-rule="nonzero"/><path d="M143.25 105.75l-1.34 2.66 1.09.59 2.16-2.25c-.63-.37-1.27-.69-1.91-1z" fill="#845739" fill-rule="nonzero"/><circle fill="#845739" fill-rule="nonzero" cx="157.79" cy="78.58" r="1"/><circle fill="#845739" fill-rule="nonzero" cx="143.8" cy="77.88" r="1"/><ellipse fill="#845739" fill-rule="nonzero" transform="rotate(-10.7 147.015 81.217)" cx="147.015" cy="81.217" rx="3.68" ry="3.83"/><path d="M143.51 110.84l-2-2a.25.25 0 010-.32l.49-.61c.09-.11.22-.14.29-.08a3.8 3.8 0 01.33.37 5.18 5.18 0 011.18 2.35.34.34 0 01-.14.25.17.17 0 01-.15.04z" fill="#5D7077" fill-rule="nonzero"/><path d="M150.22 87.17a12 12 0 002.2-1.25 12.18 12.18 0 001.94-1.71 9.21 9.21 0 001.45-2.11 8.87 8.87 0 00.79-2.43l1.57.18a10.37 10.37 0 01-.72 3 11.16 11.16 0 01-1.55 2.65 13.73 13.73 0 01-2.12 2.19 14.13 14.13 0 01-2.58 1.72l-.98-2.24zm-3.98 3.68a11.64 11.64 0 01-3.29-.69 13.11 13.11 0 01-2.91-1.43 13.52 13.52 0 01-2.46-2.06 15.67 15.67 0 01-1.93-2.53l1.33-.86a13.91 13.91 0 001.86 2.11 11.11 11.11 0 002.24 1.62c.8.44 1.654.776 2.54 1a9.44 9.44 0 002.59.38l.03 2.46z" fill="#845739" fill-rule="nonzero"/><path d="M141.07 89.63l1.44-2.73a14.33 14.33 0 003.42.9c1.1 0-1.14 3.53-1.14 3.53s-3.15-1.4-3.72-1.7z" fill="#E2E6E8" fill-rule="nonzero"/><path d="M150.14 95.82c2.64-.33 3.87-2.57 3.54-5.22l-.13-1c-.33-2.64-1.45-4.07-3.64-3.62l-1.64.13c-2.45.08-4 1.85-3.68 4.5l.13 1a4.87 4.87 0 005.42 4.21z" fill="#77D9F7" fill-rule="nonzero"/><path d="M146.65 86.47l.41 2.12 4.58-.43-.56-2.22a9.79 9.79 0 00-4.43.53zm-1.38 1.15l1 6.4-1 1.82-.72-5s-.17-2.78.72-3.22z" fill="#E2E6E8" fill-rule="nonzero"/><path d="M147.55 89.86l4.56-.56.64 3a.79.79 0 01-.69.94l-3.37.33a.78.78 0 01-.85-.7l-.29-3.01z" fill="#00B9FF" fill-rule="nonzero"/><path d="M151.83 94a9.15 9.15 0 01-.11 1.22c-.05.36-.12.7-.18 1a22.79 22.79 0 01-2.04 5.78 19.72 19.72 0 01-2.16 3.37 21.46 21.46 0 01-2.72 2.83l-2.33-2.17a16.47 16.47 0 001.55-2.81 14.72 14.72 0 001-3 15.13 15.13 0 00.37-3.05v-1.51c0-.24 0-.49-.07-.72a3.38 3.38 0 00-.11-.56l6.8-.38z" fill="#77D9F7" fill-rule="nonzero"/><path d="M229.08 107a2.12 2.12 0 00-.27-2.69c-.17-.14-.39-.25-.48-.46-.21-.47.37-.88.65-1.32a1.88 1.88 0 00-.33-2.11c-.47-.59-1.13-1-1.65-1.57-.94-1-1.55-2.58-2.91-2.86-.54-.12-1.11 0-1.66-.06-.55-.06-1.15-.44-1.14-1 .022-.23.101-.45.23-.64.84-1.49 2.19-3.05 1.66-4.68a3.69 3.69 0 00-2.91-2.12A2.84 2.84 0 00218 88.7a3.23 3.23 0 01-.58.9 3.91 3.91 0 01-.84.35 1.81 1.81 0 00-1 2.09 2.68 2.68 0 00-2.18-.68c-1.37 0-2.88 0-3.88.94a1.28 1.28 0 00-.49 1.21c-.64-.23-1.25.45-1.46 1.1-.21.65-.28 1.4-.81 1.84a4.17 4.17 0 01-.72.4 7.51 7.51 0 00-1.91 1.56c-1 1-2.47 3.25-3.79 3.78-1.32.53-2.34-.08-2.85 1.71a1.61 1.61 0 00.08 1.29 2 2 0 001.41.71l4.18.86a23 23 0 006.85.68 1.52 1.52 0 00.95 1.37 4.34 4.34 0 001.72.31c3 .14 6 .21 9.05.23l.23-.57a12.56 12.56 0 003.77.44c.34-.15.7-.29 1-.46a5.3 5.3 0 002.35-1.76z" fill="#E2E6E8" fill-rule="nonzero"/><path d="M241.65 106.8a1.16 1.16 0 001-1.67 5.37 5.37 0 00-1.1-1.4 2.92 2.92 0 01-.81-.91c-.25-.56 0-1.25-.25-1.81-.43-1-1.82-.87-2.89-1a4.67 4.67 0 01-2.54-1c-1-.84-1.77-2.17-3.06-2.51-.2-.8-.41-1.59-.61-2.38-.24-.61-2.9-1.05-4.05-.25a6.58 6.58 0 01-2.13-3.36 4.07 4.07 0 00-.87-2.13 3.14 3.14 0 00-1.31-.56 8.38 8.38 0 00-2.67-.38h-.05a3.69 3.69 0 012.91 2.12c.53 1.63-.82 3.19-1.66 4.68a1.38 1.38 0 00-.23.64c0 .55.59.93 1.14 1 .55.07 1.12-.06 1.66.06 1.36.28 2 1.84 2.91 2.86.52.56 1.18 1 1.65 1.57a1.88 1.88 0 01.33 2.11c-.28.44-.86.85-.65 1.32.09.21.31.32.48.46a2.12 2.12 0 01.27 2.69 5.3 5.3 0 01-2.28 1.81c-.34.17-.7.31-1 .46a47.49 47.49 0 004.89-.44 3.53 3.53 0 001.89-.6c.38-.37 5.43-1.1 9.03-1.38z" fill="#D3D5D8" fill-rule="nonzero"/><path d="M145.22 80.44c-.63.05-1.19 1.41-.89 2 .22.48.52 1 .24 1.48-.323.342-.8.49-1.26.39a3 3 0 01-1.71-.44 2.07 2.07 0 01-.76-1.75 4.87 4.87 0 01.56-1.88 14.34 14.34 0 011.78-2.79 5.77 5.77 0 012-1.68 4.84 4.84 0 013.61 0 11.84 11.84 0 013.16 1.89c.494.32.903.756 1.19 1.27a2.59 2.59 0 01-.45 2.68c-.6.75-1.85 1-1.85.42a4.91 4.91 0 00-.92-2.57c-.25-.22-1.19.27-1.51.43a24.14 24.14 0 01-3.19.55z" fill="#2E4369" fill-rule="nonzero"/><path fill="#C58F62" fill-rule="nonzero" d="M331.21 92.63l-.33-4.74 3.12-.39.32 4.74zm-11.36-6.33l-1.08 5.7h-1.82v-5.51z"/><path d="M337 58c0 1.6-5.51 2.67-12.32 2.67-6.81 0-11.72.39-12.64-2.14-.07-.15.85-.53.85-.53 0-1.69 5.81-3.3 11.86-3.3A26.93 26.93 0 01337 58z" fill="#CC8719" fill-rule="nonzero"/><path fill="#2E4369" fill-rule="nonzero" d="M324.05 49.74l.16 38.79L339 87.3l-7.15-38.35z"/><path d="M317.48 48.82c-1.44 6.44-2.82 12.85-4.15 19.31a760.63 760.63 0 00-1.94 9.73c-.62 3.27-1.22 6.54-1.74 9.93l14.82 1c-.09-3.13-.08-6.36-.05-9.59.03-3.23.1-6.49.18-9.74.16-6.51.38-13.05.65-19.56l-7.77-1.08z" fill="#37517E" fill-rule="nonzero"/><path d="M323.17 45.34c.56.243 1.134.45 1.72.62.52.16 1.05.3 1.57.42a27.52 27.52 0 009.41.62 19.32 19.32 0 005.94-1.63 17.91 17.91 0 004.87-3.29l-.78-1.18a15.37 15.37 0 01-5 1.08 14.91 14.91 0 01-4.77-.57 19.18 19.18 0 01-4.35-1.83 20.27 20.27 0 01-1.95-1.25c-.32-.22-.61-.46-.9-.69a3.8 3.8 0 01-.67-.65l-5.09 8.35z" fill="#CC8719" fill-rule="nonzero"/><circle fill="#C58F62" fill-rule="nonzero" cx="302.82" cy="31.71" r="1.45"/><circle fill="#C58F62" fill-rule="nonzero" cx="348.78" cy="40.6" r="1.45"/><path d="M329.44 35.6l-.44.91c1.91 3.13 5.57 16.41 8.17 21.66 0 0-4.75-1.69-11.71 1.19-3.76 1.56-10-.13-12.1-.69a7.24 7.24 0 00-1.23-.06c-.38-2.25 1.69-6.5 2.91-10.94 1.15-4.07 2.83-9.76 3.75-11.26 0 0 1-1.06 1.69-1.06l8.96.25z" fill="#F3B745" fill-rule="nonzero"/><path d="M331.12 90.26l.2 3.22h6.85s.5-1.84-1.75-2.26c-2.25-.42-2.25-1.33-2.25-1.33l-3.05.37zm-10.67 3.22s.28-3.42-2.27-3.59c-2.55-.17-2.5 3.59-2.5 3.59h4.77z" fill="#845739" fill-rule="nonzero"/><path d="M321 35.45l-.06.07c0 .05-.09.1-.16.16a4 4 0 01-.37.33 9.28 9.28 0 01-.87.64 13.18 13.18 0 01-1.92 1.05 9.17 9.17 0 01-4.28.78 5.57 5.57 0 01-1.14-.15 4.7 4.7 0 01-1.16-.29c-.37-.14-.77-.26-1.16-.43l-1.13-.62a5.53 5.53 0 01-1.1-.73l-1.09-.82c-.67-.62-1.32-1.3-2-2l-1.22.73c.42.91.82 1.85 1.29 2.77l.84 1.33c.263.468.578.904.94 1.3l1.07 1.26c.4.38.84.74 1.28 1.12a9 9 0 001.41 1 10.29 10.29 0 001.56.86 15.75 15.75 0 007.15 1.44 21.39 21.39 0 003.65-.43 16.55 16.55 0 001.81-.46c.3-.08.61-.21.91-.31l.48-.19.25-.1.34-.17-5.32-8.14z" fill="#FFB619" fill-rule="nonzero"/><path d="M328.78 33a9.2 9.2 0 00-.33-6.68 4.27 4.27 0 00-3.31-1.86 6.86 6.86 0 00-4.67 1.55c-1.15 1.08-.62 4.66-.29 6 0 .07 0 .14.09.13-1.68 1.64-3.06 4.59-2.67 5.54.1-.13 3.76-1.75 4.11-1a5.34 5.34 0 004.74 2.86c3-.21 3.54-4 2.58-6.15l-.25-.39z" fill="#3C517B" fill-rule="nonzero"/><path d="M328.18 28.16c-1.62-.51-3.2.22-4.26.1a11.46 11.46 0 01-.42 2.5c-.09.388-.03.795.17 1.14.94 1.65 2.76 2.1 4.06 1a.06.06 0 000-.07 3 3 0 00.56-1.12 11.52 11.52 0 00-.11-3.55z" fill="#C58F62" fill-rule="nonzero"/><path d="M360.38.66h22.42c.24.01.426.21.42.45v12.95a.43.43 0 01-.42.44h-9l.68 3.65-7.31-3.65h-6.74a.43.43 0 01-.42-.44V1.11a.44.44 0 01.37-.45z" fill="#37517E" fill-rule="nonzero"/><path d="M346.14 7.94h-22.43a.43.43 0 00-.41.44v13a.43.43 0 00.41.44h9l-.68 3.65 7.32-3.65h6.74a.43.43 0 00.41-.44v-13a.43.43 0 00-.36-.44z" fill="#A7E2F9" fill-rule="nonzero"/><path fill="#00B9FF" d="M375.12 7.03h-10.88l.62-1.44h10.87zm3.83 2.84h-14.71l.62-1.45h14.7z"/><path d="M13.13 46.35a9.37 9.37 0 00-1.25.43c-.45.18-.89.38-1.33.6a17.2 17.2 0 00-2.46 1.47 9.05 9.05 0 00-3.31 4 7.69 7.69 0 00.23 5.38 19.63 19.63 0 003.29 5.48A.92.92 0 016.99 65a21.92 21.92 0 01-4.85-5.35 11.63 11.63 0 01-1.81-7.79 14 14 0 013.73-7.37 22.2 22.2 0 012.9-2.68c.52-.4 1.05-.78 1.59-1.15a19.76 19.76 0 011.81-1.07l.3-.15A3.68 3.68 0 0114 46a4.54 4.54 0 01-.87.35z" fill="#845739" fill-rule="nonzero"/><path d="M14.06 36.79a2.72 2.72 0 01-1.36-5.08l.31.53a2.11 2.11 0 001.5 3.9 2.113 2.113 0 00-.9-4.13l-.12-.6a2.72 2.72 0 11.57 5.38z" fill="#FFB619" fill-rule="nonzero"/><path d="M21.62 29.14l-4.08.67s1.12 1.68 2.42 1.3a2.81 2.81 0 001.66-1.97zm-4.43.75l-4.11.49s1 1.73 2.36 1.41a2.81 2.81 0 001.75-1.9z" fill="#485CC7" fill-rule="nonzero"/><path d="M29.69 61c-.63 3.76-1.33 7.31-2.08 10.94s-1.54 7.18-2.39 10.76c-.85 3.58-1.75 7.12-2.71 10.66s-2 7.06-3.08 10.55l-4.74-1c.3-3.57.57-7.14.73-10.72.16-3.58.29-7.15.34-10.73.05-3.58.07-7.15 0-10.72-.07-3.57-.14-7.18-.31-10.61l14.24.87z" fill="#845739" fill-rule="nonzero"/><path fill="#845739" fill-rule="nonzero" d="M19.03 60.82l-1.91 41.95-4.81.39-7.5-41.59z"/><circle fill="#84563B" fill-rule="nonzero" cx="22.63" cy="26.51" r="1.35"/><rect fill="#845739" fill-rule="nonzero" transform="rotate(171.53 16.6 30.373)" x="12.44" y="24.973" width="8.32" height="10.8" rx="4.16"/><path d="M12.31 29.81a4.15 4.15 0 017.94-2.2c-.16-.13-1 .12-1 .63 0 1 .25 1.48.2 1.86-.12.89-.89.72-.85 1.34.26 5.2-5.55 3.56-5.87 1.4l-.42-3.03z" fill="#66432F" fill-rule="nonzero"/><path d="M15.17 102.81v3.3h.95l.56-1.81 1.48 1.73 6.39.07h.79s-5.71-2.39-5.45-4" fill="#5A80F9" fill-rule="nonzero"/><path d="M21.05 30.66a2.67 2.67 0 011.64 2 2.72 2.72 0 01-2.65 3.29 2.72 2.72 0 01-2.11-4.44l.47.39a2.11 2.11 0 102.53-.58" fill="#FFB619" fill-rule="nonzero"/><ellipse fill="#CC8719" fill-rule="nonzero" cx="640.64" cy="101.61" rx="3.97" ry="1.14"/><path fill="#CC8719" fill-rule="nonzero" d="M636.67 100.34h7.94v1.27h-7.94z"/><ellipse fill="#FFB619" fill-rule="nonzero" cx="640.64" cy="100.34" rx="3.97" ry="1.14"/><ellipse fill="#CC8719" fill-rule="nonzero" cx="633.01" cy="102.73" rx="3.97" ry="1.14"/><path fill="#CC8719" fill-rule="nonzero" d="M629.04 101.46h7.94v1.27h-7.94z"/><ellipse fill="#FFB619" fill-rule="nonzero" cx="633.01" cy="101.46" rx="3.97" ry="1.14"/><ellipse fill="#CC8719" fill-rule="nonzero" cx="649.78" cy="102.93" rx="3.97" ry="1.14"/><path fill="#CC8719" fill-rule="nonzero" d="M645.8 101.66h7.94v1.27h-7.94z"/><ellipse fill="#FFB619" fill-rule="nonzero" cx="649.78" cy="101.66" rx="3.97" ry="1.14"/><path d="M651.07 100.09a10.57 10.57 0 010 3.43 11.38 11.38 0 010-3.43z" fill="#FFF" fill-rule="nonzero"/><path d="M652.64 101.8a9.86 9.86 0 01-1.71.14 10.06 10.06 0 01-1.72-.14 10 10 0 011.72-.13 10.94 10.94 0 011.71.13z" fill="#FFF" fill-rule="nonzero"/><path d="M651.85 102.61a4.86 4.86 0 01-1.61-1.61 4.89 4.89 0 011.61 1.61z" fill="#FFF" fill-rule="nonzero"/><path d="M650.25 102.61a4.89 4.89 0 011.61-1.61 4.86 4.86 0 01-1.61 1.61zM630.71 101c.047.331.074.665.08 1a8.26 8.26 0 01-.08 1 8.24 8.24 0 01-.07-1 8.07 8.07 0 01.07-1z" fill="#FFF" fill-rule="nonzero"/><path d="M631.62 101.94a6.17 6.17 0 01-2 0 7 7 0 012 0z" fill="#FFF" fill-rule="nonzero"/><path d="M631.16 102.41a2.82 2.82 0 01-.93-.93c.379.232.698.551.93.93z" fill="#FFF" fill-rule="nonzero"/><path d="M630.24 102.41a3 3 0 01.41-.52c.16-.153.334-.29.52-.41a5.21 5.21 0 01-.41.52 4.27 4.27 0 01-.52.41z" fill="#FFF" fill-rule="nonzero"/><path d="M642 99.72a2.9 2.9 0 00-2.9-2.9h-16.41a2.9 2.9 0 00-2.9 2.9H642z" fill="#829CA9" fill-rule="nonzero"/><path d="M.73 64.09c0 .61-.08 1.24-.09 1.9 0 2.39 1.13 5.32 2.68 8.84h.06a.47.47 0 01.3.83c.65 1.47 1.34 3.05 2 4.72a.49.49 0 01.34-.15.47.47 0 010 .94c.67 1.64 1.31 3.36 1.9 5.19h.45a.45.45 0 01-.09-.26.47.47 0 01.94 0 .45.45 0 01-.09.26h1.92a.45.45 0 01-.09-.26c0-.26.21-.47.47-.47a.48.48 0 01.48.47.45.45 0 01-.09.26h1.94a.45.45 0 01-.09-.26.47.47 0 11.94 0 .45.45 0 01-.09.26h1.92a.45.45 0 01-.09-.26.47.47 0 01.47-.47.48.48 0 01.48.47.45.45 0 01-.09.26h1.94a.45.45 0 01-.09-.26.47.47 0 11.94 0 .45.45 0 01-.09.26h1.92a.45.45 0 01-.09-.26c0-.26.21-.47.47-.47a.48.48 0 01.48.47.45.45 0 01-.09.26h1.94a.45.45 0 01-.09-.26.47.47 0 01.9-.19c.57-1.75 1.2-3.41 1.84-5a.51.51 0 01-.06-.22.46.46 0 01.34-.44c1.13-2.71 2.26-5.15 3.17-7.33a.48.48 0 01-.32.13.47.47 0 01-.47-.47.48.48 0 01.47-.48.48.48 0 01.47.46 17.76 17.76 0 001.71-6.57 19.52 19.52 0 00-2-9.18.42.42 0 01-.15 0 .47.47 0 01-.47-.47.48.48 0 01.17-.36 21.14 21.14 0 00-3.64-4.33 7.55 7.55 0 01-.84-.92 3.26 3.26 0 01-.62-2 .47.47 0 010-.94.35.35 0 01.14 0 .58.58 0 010-.14 10.11 10.11 0 00.66-3.58 8 8 0 00-.72-3.5h-.11a.47.47 0 01-.47-.47c0-.127.05-.25.14-.34a6.24 6.24 0 00-2.64-2.16l-2-.08a.47.47 0 01-.45.36.47.47 0 01-.46-.4h-1.78a.47.47 0 01-.47.44.48.48 0 01-.47-.45h-1.75a.46.46 0 01-.91.03l-1.81.06a.47.47 0 01-.45.32.45.45 0 01-.38-.22 6.19 6.19 0 00-2.44 2h.13a.47.47 0 01.47.48c0 .26-.21.47-.47.47a.46.46 0 01-.46-.41 7.66 7.66 0 00-.92 3.89 10.11 10.11 0 00.66 3.58 3.23 3.23 0 01-.44 3.06 7.55 7.55 0 01-.84.92 21.35 21.35 0 00-3.61 4.27.56.56 0 01.21-.06.48.48 0 01.47.48.47.47 0 01-.94.01 15.41 15.41 0 00-1.85 5.14.42.42 0 01.09.25.45.45 0 01-.19.35c-.09.61-.17 1.24-.22 1.9m29.64-5.41a.47.47 0 010 .94.47.47 0 010-.94zm-.47 3.16a.48.48 0 01.47-.48.48.48 0 01.47.48.47.47 0 01-.94 0zm.47 2.24a.47.47 0 010 .94.47.47 0 010-.94zm-.47 3.16a.48.48 0 01.47-.48.48.48 0 01.47.48.47.47 0 01-.47.47.47.47 0 01-.47-.47zm.47 2.24a.47.47 0 010 .94.47.47 0 010-.94zm-5.4-27a.47.47 0 010 .94.47.47 0 010-.94zm-.47 3.16a.47.47 0 01.47-.48.47.47 0 01.47.48.47.47 0 11-.94 0zm-20.65 27a.47.47 0 01-.94 0 .48.48 0 01.47-.48.48.48 0 01.47.48zm-.47-2.22a.47.47 0 010-.94.47.47 0 010 .94zm.47-3.18a.47.47 0 01-.47.47.47.47 0 01-.47-.47.48.48 0 01.47-.48.48.48 0 01.47.48zm-.47-2.22a.47.47 0 010-.94.47.47 0 010 .94zm.47-3.18a.47.47 0 01-.94 0 .48.48 0 01.47-.48.48.48 0 01.47.48zm-.47-2.22a.47.47 0 010-.94.47.47 0 010 .94zM6.54 78a.48.48 0 01-.48.47.47.47 0 01-.47-.47.48.48 0 01.47-.48.49.49 0 01.48.48zm-.48-2.22a.47.47 0 110-.94.47.47 0 010 .94zm.48-3.18a.48.48 0 01-.48.47.47.47 0 01-.47-.47.48.48 0 01.47-.48.49.49 0 01.48.48zm-.48-2.22a.47.47 0 110-.94.47.47 0 010 .94zm.48-3.18a.48.48 0 01-.48.47.47.47 0 01-.47-.47.48.48 0 01.47-.48.49.49 0 01.48.48zm-.48-2.22a.47.47 0 110-.94.47.47 0 010 .94zm.48-3.18a.48.48 0 01-.48.47.47.47 0 01-.47-.47.48.48 0 01.47-.48.49.49 0 01.48.48zm-.48-2.22a.47.47 0 110-.94.47.47 0 010 .94zm.48-3.18a.48.48 0 01-.48.47.47.47 0 01-.47-.47.48.48 0 01.47-.48.49.49 0 01.48.48zm-.48-2.22a.47.47 0 110-.94.47.47 0 010 .94zM9.25 83.4a.47.47 0 01-.94 0 .48.48 0 01.47-.48.48.48 0 01.47.48zm-.47-2.22a.47.47 0 010-.94.47.47 0 010 .94zM9.25 78a.47.47 0 11-.94 0 .48.48 0 01.47-.48.48.48 0 01.47.48zm-.47-2.22a.47.47 0 010-.94.47.47 0 010 .94zm.47-3.18a.47.47 0 01-.94 0 .48.48 0 01.47-.48.48.48 0 01.47.48zm-.47-2.22a.47.47 0 010-.94.47.47 0 010 .94zm.47-3.18a.47.47 0 01-.47.47.47.47 0 01-.47-.47.48.48 0 01.47-.48.48.48 0 01.47.48zm-.47-2.22a.47.47 0 010-.94.47.47 0 010 .94zm.47-3.18a.47.47 0 01-.94 0 .48.48 0 01.47-.48.48.48 0 01.47.48zm-.47-2.22a.47.47 0 010-.94.47.47 0 010 .94zm.47-3.18a.47.47 0 11-.94 0 .48.48 0 01.47-.48.48.48 0 01.47.48zm-.47-2.22a.47.47 0 010-.94.47.47 0 010 .94zM9.25 51a.47.47 0 01-.94 0 .48.48 0 01.47-.48.48.48 0 01.47.48zm-.47-2.22a.47.47 0 010-.94.47.47 0 010 .94zm.47-3.18a.47.47 0 01-.94 0 .47.47 0 01.47-.48.47.47 0 01.47.48zm-.47-2.22a.47.47 0 010-.94.47.47 0 010 .94zm3.16 40a.48.48 0 01-.48.47.47.47 0 01-.47-.47.48.48 0 01.47-.48.49.49 0 01.48.48zm-.48-2.22a.47.47 0 110-.94.47.47 0 010 .94zm.48-3.18a.48.48 0 01-.48.47A.47.47 0 0111 78a.48.48 0 01.47-.48.49.49 0 01.48.48l-.01-.02zm-.48-2.22a.47.47 0 110-.94.47.47 0 010 .94zm.48-3.18a.48.48 0 01-.48.47.47.47 0 01-.47-.47.48.48 0 01.47-.48.49.49 0 01.48.48zm-.48-2.22a.47.47 0 110-.94.47.47 0 010 .94zm.48-3.18a.48.48 0 01-.48.47.47.47 0 01-.47-.47.48.48 0 01.47-.48.49.49 0 01.48.48zm-.48-2.22a.47.47 0 110-.94.47.47 0 010 .94zm.48-3.18a.48.48 0 01-.48.47.47.47 0 01-.47-.47.48.48 0 01.47-.48.49.49 0 01.48.48zm-.48-2.22a.47.47 0 110-.94.47.47 0 010 .94zm.48-3.18a.48.48 0 01-.48.47.47.47 0 01-.47-.47.48.48 0 01.47-.48.49.49 0 01.48.48zm-.48-2.22a.47.47 0 110-.94.47.47 0 010 .94zm.48-3.18a.48.48 0 01-.48.47A.47.47 0 0111 51a.48.48 0 01.47-.48.49.49 0 01.48.48l-.01-.02zm-.48-2.22a.47.47 0 110-.94.47.47 0 010 .94zm.48-3.18a.48.48 0 01-.48.47.47.47 0 01-.47-.47.47.47 0 01.47-.48.48.48 0 01.48.48zm-.48-2.22a.47.47 0 110-.94.47.47 0 010 .94zm.48-3.18a.48.48 0 01-.48.47.47.47 0 01-.47-.47.47.47 0 01.47-.48.48.48 0 01.48.48zm2.71 43.2a.47.47 0 01-.47.47.47.47 0 01-.47-.47.48.48 0 01.47-.48.48.48 0 01.47.48zm-.47-2.22a.47.47 0 010-.94.47.47 0 010 .94zm.47-3.18a.47.47 0 01-.47.47.47.47 0 01-.47-.47.48.48 0 01.47-.48.48.48 0 01.47.48zm-.47-2.22a.47.47 0 010-.94.47.47 0 010 .94zm.47-3.18a.47.47 0 01-.47.47.47.47 0 01-.47-.47.48.48 0 01.47-.48.48.48 0 01.47.48zm-.47-2.22a.47.47 0 010-.94.47.47 0 010 .94zm.47-3.18a.47.47 0 01-.47.47.47.47 0 01-.47-.47.48.48 0 01.47-.48.48.48 0 01.47.48zm-.47-2.22a.47.47 0 010-.94.47.47 0 010 .94zm.47-3.18a.47.47 0 01-.47.47.47.47 0 01-.47-.47.48.48 0 01.47-.48.48.48 0 01.47.48zm-.47-2.22a.47.47 0 010-.94.47.47 0 010 .94zm.47-3.18a.47.47 0 01-.47.47.47.47 0 01-.47-.47.48.48 0 01.47-.48.48.48 0 01.47.48zm-.47-2.22a.47.47 0 010-.94.47.47 0 010 .94zm.47-3.18a.47.47 0 01-.47.47.47.47 0 01-.47-.47.48.48 0 01.47-.48.48.48 0 01.47.48zm-.47-2.22a.47.47 0 010-.94.47.47 0 010 .94zm.47-3.18a.47.47 0 01-.47.47.47.47 0 01-.47-.47.47.47 0 01.47-.48.47.47 0 01.47.48zm-.47-2.22a.47.47 0 010-.94.47.47 0 010 .94zm.47-3.18a.47.47 0 01-.47.47.47.47 0 01-.47-.47.47.47 0 01.47-.48.47.47 0 01.47.48zm2.69 43.2a.48.48 0 01-.48.47.47.47 0 01-.47-.47.48.48 0 01.47-.48.49.49 0 01.48.48zm-.48-2.22a.47.47 0 110-.94.47.47 0 010 .94zm.48-3.18a.48.48 0 01-.48.47.47.47 0 01-.47-.47.48.48 0 01.47-.48.49.49 0 01.48.48zm-.48-2.22a.47.47 0 110-.94.47.47 0 010 .94zm.48-3.18a.48.48 0 01-.48.47.47.47 0 01-.47-.47.48.48 0 01.47-.48.49.49 0 01.48.48zm-.48-2.22a.47.47 0 110-.94.47.47 0 010 .94zm.48-3.18a.48.48 0 01-.48.47.47.47 0 01-.47-.47.48.48 0 01.47-.48.49.49 0 01.48.48zm-.48-2.22a.47.47 0 110-.94.47.47 0 010 .94zm.48-3.18a.48.48 0 01-.48.47.47.47 0 01-.47-.47.48.48 0 01.47-.48.49.49 0 01.48.48zm-.48-2.22a.47.47 0 110-.94.47.47 0 010 .94zm.48-3.18a.48.48 0 01-.48.47.47.47 0 01-.47-.47.48.48 0 01.47-.48.49.49 0 01.48.48zm-.48-2.22a.47.47 0 110-.94.47.47 0 010 .94zm.48-3.18a.48.48 0 01-.48.47.47.47 0 01-.47-.47.48.48 0 01.47-.48.49.49 0 01.48.48zm-.48-2.22a.47.47 0 110-.94.47.47 0 010 .94zm.48-3.18a.48.48 0 01-.48.47.47.47 0 01-.47-.47.47.47 0 01.47-.48.48.48 0 01.48.48zm-.48-2.22a.47.47 0 110-.94.47.47 0 010 .94zm.48-3.18a.48.48 0 01-.48.47.47.47 0 01-.47-.47.47.47 0 01.47-.48.48.48 0 01.48.48zm2.71 43.2a.47.47 0 11-.94 0 .48.48 0 01.47-.48.48.48 0 01.47.48zm-.47-2.22a.47.47 0 010-.94.47.47 0 010 .94zm.47-3.18a.47.47 0 01-.94 0 .48.48 0 01.47-.48.48.48 0 01.47.48zm-.47-2.22a.47.47 0 010-.94.47.47 0 010 .94zm.47-3.18a.47.47 0 01-.47.47.47.47 0 01-.47-.47.48.48 0 01.47-.48.48.48 0 01.47.48zm-.47-2.22a.47.47 0 010-.94.47.47 0 010 .94zm.47-3.18a.47.47 0 01-.94 0 .48.48 0 01.47-.48.48.48 0 01.47.48zm-.47-2.22a.47.47 0 010-.94.47.47 0 010 .94zm.47-3.18a.47.47 0 01-.94 0 .48.48 0 01.47-.48.48.48 0 01.47.48zm-.47-2.22a.47.47 0 010-.94.47.47 0 010 .94zm.47-3.18a.47.47 0 11-.94 0 .48.48 0 01.47-.48.48.48 0 01.47.48zm-.47-2.22a.47.47 0 010-.94.47.47 0 010 .94zm.47-3.18a.47.47 0 01-.94 0 .48.48 0 01.47-.48.48.48 0 01.47.48zm-.47-2.22a.47.47 0 110-.94.47.47 0 110 .94zm.47-3.18a.47.47 0 01-.94 0 .47.47 0 01.47-.48.47.47 0 01.47.48zm-.47-2.22a.47.47 0 010-.94.47.47 0 010 .94zm.47-3.18a.47.47 0 01-.94 0 .47.47 0 01.47-.48.47.47 0 01.47.48zm2.37-2.25a.41.41 0 01-.16 0 .46.46 0 01-.38-.21c.19.08.36.15.54.21zm.32 45.45a.48.48 0 01-.48.47.47.47 0 01-.47-.47.48.48 0 01.47-.48.49.49 0 01.48.48zm-.48-2.22a.47.47 0 110-.94.47.47 0 010 .94zm.48-3.18a.48.48 0 01-.48.47.47.47 0 01-.47-.47.48.48 0 01.47-.48.49.49 0 01.48.48zm-.48-2.22a.47.47 0 110-.94.47.47 0 010 .94zm.48-3.18a.48.48 0 01-.48.47.47.47 0 01-.47-.47.48.48 0 01.47-.48.49.49 0 01.48.48zm-.48-2.22a.47.47 0 110-.94.47.47 0 010 .94zm.48-3.18a.48.48 0 01-.48.47.47.47 0 01-.47-.47.48.48 0 01.47-.48.49.49 0 01.48.48zm-.48-2.22a.47.47 0 110-.94.47.47 0 010 .94zm.48-3.18a.48.48 0 01-.48.47.47.47 0 01-.47-.47.48.48 0 01.47-.48.49.49 0 01.48.48zm-.48-2.22a.47.47 0 110-.94.47.47 0 010 .94zm.48-3.18a.48.48 0 01-.48.47.47.47 0 01-.47-.47.48.48 0 01.47-.48.49.49 0 01.48.48zm-.48-2.22a.47.47 0 110-.94.47.47 0 010 .94zm.48-3.18a.48.48 0 01-.48.47.47.47 0 01-.47-.47.48.48 0 01.47-.48.49.49 0 01.48.48zm-.48-2.22a.47.47 0 110-.94.47.47 0 010 .94zm.48-3.18a.48.48 0 01-.48.47.47.47 0 01-.47-.47.47.47 0 01.47-.48.48.48 0 01.48.48zm-.48-2.22a.47.47 0 110-.94.47.47 0 010 .94zm.48-3.18a.48.48 0 01-.48.47.47.47 0 01-.47-.47.47.47 0 01.47-.48.48.48 0 01.48.48zm2.71 43.2a.47.47 0 01-.94 0 .48.48 0 01.47-.48.48.48 0 01.47.48zm-.47-2.22a.47.47 0 010-.94.47.47 0 010 .94zm.47-3.18a.47.47 0 11-.94 0 .48.48 0 01.47-.48.48.48 0 01.47.48zm-.47-2.22a.47.47 0 010-.94.47.47 0 010 .94zm.47-3.18a.47.47 0 01-.94 0 .48.48 0 01.47-.48.48.48 0 01.47.48zm-.47-2.22a.47.47 0 010-.94.47.47 0 010 .94zm.47-3.18a.47.47 0 01-.47.47.47.47 0 01-.47-.47.48.48 0 01.47-.48.48.48 0 01.47.48zM25 65a.47.47 0 010-.94.47.47 0 010 .94zm.47-3.18a.47.47 0 01-.94 0 .48.48 0 01.47-.48.48.48 0 01.47.48zM25 59.6a.47.47 0 010-.94.47.47 0 010 .94zm.47-3.18a.47.47 0 01-.47.47.47.47 0 01-.47-.47.48.48 0 01.47-.48.48.48 0 01.47.48zM25 54.2a.47.47 0 010-.94.47.47 0 010 .94zm.47-3.18a.47.47 0 01-.94 0 .48.48 0 01.47-.48.48.48 0 01.47.48zm2.69 27a.48.48 0 01-.95 0 .48.48 0 11.95 0zm-.48-2.22a.47.47 0 11.48-.47.47.47 0 01-.5.43l.02.04zm.48-3.18a.48.48 0 01-.95 0 .48.48 0 11.95 0zm-.48-2.22a.47.47 0 11.48-.47.47.47 0 01-.5.43l.02.04zm.48-3.18a.48.48 0 01-.95 0 .48.48 0 11.95 0zM27.68 65a.47.47 0 11.332-.127.47.47 0 01-.352.127h.02zm0-2.71a.47.47 0 01-.47-.47.48.48 0 11.95 0 .47.47 0 01-.5.43l.02.04zm0-2.69a.47.47 0 11.48-.47.47.47 0 01-.5.43l.02.04zm.48-3.18a.48.48 0 01-.95 0 .48.48 0 11.95 0zm-.48-2.22a.47.47 0 11.48-.47.47.47 0 01-.5.43l.02.04z" fill="#5A80F9" fill-rule="nonzero"/><circle fill="#77D9F7" fill-rule="nonzero" cx="27.66" cy="53.69" r="1"/><path d="M27.66 55.9a.48.48 0 00-.47.48.48.48 0 00.95 0 .48.48 0 00-.48-.48zm2.24.48c0 .26.21.47.47.47.05.009.1.009.15 0-.15-.27-.3-.53-.46-.79a.48.48 0 00-.16.32z" fill="#77D9F7" fill-rule="nonzero"/><circle fill="#77D9F7" fill-rule="nonzero" cx="27.66" cy="59.09" r="1"/><path d="M30.37 59.56a.47.47 0 000-.94.47.47 0 000 .94zm-2.71 1.74a.48.48 0 00-.47.48.48.48 0 00.95 0 .48.48 0 00-.48-.48zm2.71.95a.47.47 0 00.47-.47.48.48 0 00-.47-.48.48.48 0 00-.47.48c0 .26.21.47.47.47zM27.66 64a.47.47 0 10.02.94.47.47 0 00-.02-.94zm2.71 1a.47.47 0 000-.94.47.47 0 000 .94zm-2.71 1.7a.48.48 0 00-.47.48.48.48 0 00.95 0 .48.48 0 00-.48-.48zm2.71.95a.47.47 0 00.47-.47.48.48 0 00-.47-.48.48.48 0 00-.47.48c0 .26.21.47.47.47zm-2.71 1.77a.47.47 0 10.02.94.47.47 0 00-.02-.94zm2.71.94a.47.47 0 000-.94.47.47 0 000 .94zm-2.71 1.74a.48.48 0 00-.47.48.48.48 0 00.95 0 .48.48 0 00-.48-.48zm3.19.46l-.15.36a.45.45 0 00.15-.34v-.02zm-.47-.46a.48.48 0 00-.47.48.47.47 0 00.47.47.48.48 0 00.32-.13l.15-.36a.48.48 0 00-.47-.46zm-2.72 2.72a.47.47 0 10.02.94.47.47 0 00-.02-.94zm0 2.68a.48.48 0 00-.47.48.48.48 0 00.95 0 .48.48 0 00-.48-.48zm-.47 3.19a.51.51 0 00.06.22c.1-.22.19-.44.28-.66a.46.46 0 00-.34.44zm-4.77-42.76c-.18-.06-.35-.13-.54-.18a.46.46 0 00.38.21.41.41 0 00.16-.03zm-.16 1.77a.47.47 0 00-.47.48c0 .26.21.47.47.47a.48.48 0 00.48-.47.48.48 0 00-.48-.48zm2.24.48a.47.47 0 00.47.47h.11a6.74 6.74 0 00-.45-.79.48.48 0 00-.14.34l.01-.02zm-2.24 2.24a.47.47 0 100 .94.47.47 0 000-.94zm2.74.94a.47.47 0 000-.94.47.47 0 000 .94zm-2.74 1.74a.47.47 0 00-.47.48c0 .26.21.47.47.47a.48.48 0 00.48-.47.48.48 0 00-.48-.48zm2.74.95c.26 0 .47-.21.47-.47a.47.47 0 00-.47-.48.47.47 0 00-.47.48.47.47 0 00.47.47zm-2.74 1.77a.47.47 0 100 .94.47.47 0 000-.94zm2.74 0a.47.47 0 000 .94c0-.31.05-.617.15-.91a.35.35 0 00-.14 0l-.01-.03zm-2.74 2.68a.48.48 0 00-.47.48c0 .26.21.47.47.47a.48.48 0 00.48-.47.49.49 0 00-.48-.48zm2.74 0a.48.48 0 00-.47.48.47.47 0 00.94 0 .48.48 0 00-.47-.48zm-2.74 2.72a.47.47 0 100 .94.47.47 0 000-.94zm2.74 0a.47.47 0 000 .94.47.47 0 000-.94zm-2.74 2.68a.48.48 0 00-.47.48c0 .26.21.47.47.47a.48.48 0 00.48-.47.49.49 0 00-.48-.48zm2.74 0a.48.48 0 00-.47.48.47.47 0 00.94 0 .48.48 0 00-.47-.48zm-2.74 2.72a.47.47 0 100 .94.47.47 0 000-.94zm2.74 0a.47.47 0 000 .94.47.47 0 000-.94zm-2.74 2.68a.48.48 0 00-.47.48c0 .26.21.47.47.47a.48.48 0 00.48-.47.49.49 0 00-.48-.48zm2.74 0a.48.48 0 00-.47.48.47.47 0 10.94 0 .48.48 0 00-.47-.48zM22.26 64a.47.47 0 100 .94.47.47 0 000-.94zM25 64a.47.47 0 000 .94.47.47 0 000-.94zm-2.74 2.7a.48.48 0 00-.47.48c0 .26.21.47.47.47a.48.48 0 00.48-.47.49.49 0 00-.48-.48zm2.74 0a.48.48 0 00-.47.48.47.47 0 00.94 0 .48.48 0 00-.47-.48zm-2.74 2.72a.47.47 0 100 .94.47.47 0 000-.94zm2.74 0a.47.47 0 000 .94.47.47 0 000-.94zm-2.74 2.68a.48.48 0 00-.47.48.47.47 0 00.47.47.48.48 0 00.48-.47.49.49 0 00-.48-.48zm2.74 0a.48.48 0 00-.47.48.47.47 0 00.47.47.47.47 0 00.47-.47.48.48 0 00-.47-.48zm-2.74 2.72a.47.47 0 100 .94.47.47 0 000-.94zm2.74 0a.47.47 0 000 .94.47.47 0 000-.94zm-2.74 2.68a.48.48 0 00-.47.48c0 .26.21.47.47.47a.48.48 0 00.48-.47.49.49 0 00-.48-.48zm2.74 0a.48.48 0 00-.47.48.47.47 0 00.94 0 .48.48 0 00-.47-.48zm-2.74 2.72a.47.47 0 100 .94.47.47 0 000-.94zm2.74 0a.47.47 0 000 .94.47.47 0 000-.94zm-2.74 2.68a.48.48 0 00-.47.48c0 .26.21.47.47.47a.48.48 0 00.48-.47.49.49 0 00-.48-.48zm2.74 0a.48.48 0 00-.47.48.47.47 0 10.94 0 .48.48 0 00-.47-.48zm-2.74 2.72a.47.47 0 00-.47.47.45.45 0 00.09.26h.77a.45.45 0 00.09-.26.48.48 0 00-.48-.47zm2.74 0a.47.47 0 00-.47.47.45.45 0 00.09.26h.67l.15-.45a.47.47 0 00-.44-.28zM16.86 38a.47.47 0 00.47-.44h-.94a.48.48 0 00.47.44zm2.71 0a.47.47 0 00.45-.36h-.92a.47.47 0 00.47.36zm-2.71 1.7a.47.47 0 00-.47.48c0 .26.21.47.47.47a.48.48 0 00.48-.47.48.48 0 00-.48-.48zm2.72 0a.47.47 0 00-.47.48.47.47 0 00.94 0 .47.47 0 00-.47-.48zm-2.72 2.72a.47.47 0 100 .94.47.47 0 000-.94zm2.72 0a.47.47 0 000 .94.47.47 0 000-.94zm-2.72 2.68a.47.47 0 00-.47.48c0 .26.21.47.47.47a.48.48 0 00.48-.47.48.48 0 00-.48-.48zm2.72 0a.47.47 0 00-.47.48.47.47 0 00.94 0 .47.47 0 00-.47-.48zm-2.72 2.72a.47.47 0 100 .94.47.47 0 000-.94zm2.72 0a.47.47 0 000 .94.47.47 0 000-.94zm-2.72 2.68a.48.48 0 00-.47.48.47.47 0 00.47.47.48.48 0 00.48-.47.49.49 0 00-.48-.48zm2.72 0a.48.48 0 00-.47.48.47.47 0 00.47.47c.26 0 .47-.21.47-.47a.48.48 0 00-.47-.48z" fill="#77D9F7" fill-rule="nonzero"/><circle fill="#77D9F7" fill-rule="nonzero" cx="16.86" cy="53.69" r="1"/><path d="M19.58 53.22a.47.47 0 000 .94.47.47 0 000-.94zm-2.72 2.68a.48.48 0 00-.47.48.47.47 0 00.47.47.48.48 0 00.48-.47.49.49 0 00-.48-.48zm2.72 0a.48.48 0 00-.47.48.47.47 0 00.47.47c.26 0 .47-.21.47-.47a.48.48 0 00-.47-.48z" fill="#77D9F7" fill-rule="nonzero"/><circle fill="#77D9F7" fill-rule="nonzero" cx="16.86" cy="59.09" r="1"/><path d="M19.58 58.62a.47.47 0 000 .94.47.47 0 000-.94zm-2.72 2.68a.48.48 0 00-.47.48.47.47 0 00.47.47.48.48 0 00.48-.47.49.49 0 00-.48-.48zm2.72 0a.48.48 0 00-.47.48.47.47 0 00.47.47.47.47 0 00.47-.47.48.48 0 00-.47-.48zM16.86 64a.47.47 0 100 .94.47.47 0 000-.94zm2.72 0a.47.47 0 000 .94.47.47 0 000-.94zm-2.72 2.7a.48.48 0 00-.47.48.47.47 0 00.47.47.48.48 0 00.48-.47.49.49 0 00-.48-.48zm2.72 0a.48.48 0 00-.47.48.47.47 0 00.47.47c.26 0 .47-.21.47-.47a.48.48 0 00-.47-.48zm-2.72 2.72a.47.47 0 100 .94.47.47 0 000-.94zm2.72 0a.47.47 0 000 .94.47.47 0 000-.94zm-2.72 2.68a.48.48 0 00-.47.48.47.47 0 00.47.47.48.48 0 00.48-.47.49.49 0 00-.48-.48zm2.72 0a.48.48 0 00-.47.48.47.47 0 00.47.47.47.47 0 00.47-.47.48.48 0 00-.47-.48zm-2.72 2.72a.47.47 0 100 .94.47.47 0 000-.94zm2.72 0a.47.47 0 000 .94.47.47 0 000-.94zm-2.72 2.68a.48.48 0 00-.47.48.47.47 0 00.47.47.48.48 0 00.48-.47.49.49 0 00-.48-.48zm2.72 0a.48.48 0 00-.47.48.47.47 0 00.47.47c.26 0 .47-.21.47-.47a.48.48 0 00-.47-.48zm-2.72 2.72a.47.47 0 100 .94.47.47 0 000-.94zm2.72 0a.47.47 0 000 .94.47.47 0 000-.94zm-2.72 2.68a.48.48 0 00-.47.48.47.47 0 00.47.47.48.48 0 00.48-.47.49.49 0 00-.48-.48zm2.72 0a.48.48 0 00-.47.48.47.47 0 00.47.47.47.47 0 00.47-.47.48.48 0 00-.47-.48zm-2.72 2.72a.47.47 0 00-.47.47.45.45 0 00.09.26h.77a.45.45 0 00.09-.26.48.48 0 00-.48-.47zm2.72 0a.47.47 0 00-.47.47.45.45 0 00.09.26h.8a.45.45 0 00-.061-.607.47.47 0 00-.359-.123zM14.17 38a.46.46 0 00.46-.41h-.92a.46.46 0 00.46.41zm-2.71 1.7a.47.47 0 00-.47.48c0 .26.21.47.47.47a.48.48 0 00.48-.47.48.48 0 00-.48-.48zm2.72 0a.47.47 0 00-.47.48.47.47 0 00.94 0 .47.47 0 00-.47-.48zm-2.72 2.72a.47.47 0 100 .94.47.47 0 000-.94zm2.72 0a.47.47 0 000 .94.47.47 0 000-.94zm-2.72 2.68a.47.47 0 00-.47.48c0 .26.21.47.47.47a.48.48 0 00.48-.47.48.48 0 00-.48-.48zm2.72 0a.47.47 0 00-.47.48.47.47 0 00.94 0 .47.47 0 00-.47-.48zm-2.72 2.72a.47.47 0 100 .94.47.47 0 000-.94zm2.72 0a.47.47 0 000 .94.47.47 0 000-.94zm-2.72 2.68a.48.48 0 00-.47.48c0 .26.21.47.47.47a.48.48 0 00.48-.47.49.49 0 00-.48-.48zm2.72 0a.48.48 0 00-.47.48.47.47 0 10.94 0 .48.48 0 00-.47-.48zm-2.72 2.72a.47.47 0 100 .94.47.47 0 000-.94zm2.72 0a.47.47 0 000 .94.47.47 0 000-.94zm-2.72 2.68a.48.48 0 00-.47.48c0 .26.21.47.47.47a.48.48 0 00.48-.47.49.49 0 00-.48-.48zm2.72 0a.48.48 0 00-.47.48.47.47 0 10.94 0 .48.48 0 00-.47-.48zm-2.72 2.72a.47.47 0 100 .94.47.47 0 000-.94zm2.72 0a.47.47 0 000 .94.47.47 0 000-.94zm-2.72 2.68a.48.48 0 00-.47.48c0 .26.21.47.47.47a.48.48 0 00.48-.47.49.49 0 00-.48-.48zm2.72 0a.48.48 0 00-.47.48.47.47 0 10.94 0 .48.48 0 00-.47-.48zM11.46 64a.47.47 0 100 .94.47.47 0 000-.94zm2.72 0a.47.47 0 000 .94.47.47 0 000-.94zm-2.72 2.7a.48.48 0 00-.47.48c0 .26.21.47.47.47a.48.48 0 00.48-.47.49.49 0 00-.48-.48zm2.72 0a.48.48 0 00-.47.48.47.47 0 10.94 0 .48.48 0 00-.47-.48zm-2.72 2.72a.47.47 0 100 .94.47.47 0 000-.94zm2.72 0a.47.47 0 000 .94.47.47 0 000-.94zm-2.72 2.68a.48.48 0 00-.47.48.47.47 0 00.47.47.48.48 0 00.48-.47.49.49 0 00-.48-.48zm2.72 0a.48.48 0 00-.47.48.47.47 0 00.47.47.47.47 0 00.47-.47.48.48 0 00-.47-.48zm-2.72 2.72a.47.47 0 100 .94.47.47 0 000-.94zm2.72 0a.47.47 0 000 .94.47.47 0 000-.94zm-2.72 2.68a.48.48 0 00-.47.48c0 .26.21.47.47.47a.48.48 0 00.48-.47.49.49 0 00-.48-.48zm2.72 0a.48.48 0 00-.47.48.47.47 0 10.94 0 .48.48 0 00-.47-.48zm-2.72 2.72a.47.47 0 100 .94.47.47 0 000-.94zm2.72 0a.47.47 0 000 .94.47.47 0 000-.94zm-2.72 2.68a.48.48 0 00-.47.48c0 .26.21.47.47.47a.48.48 0 00.48-.47.49.49 0 00-.48-.48zm2.72 0a.48.48 0 00-.47.48.47.47 0 10.94 0 .48.48 0 00-.47-.48zm-2.72 2.72a.47.47 0 00-.47.47.45.45 0 00.09.26h.77a.45.45 0 00.09-.26.48.48 0 00-.48-.47zm2.72 0a.47.47 0 00-.47.47.45.45 0 00.09.26h.77a.45.45 0 00.09-.26.47.47 0 00-.48-.47zM8.3 40.18v.06c.1-.18.22-.35.33-.51a.47.47 0 00-.33.45z" fill="#77D9F7" fill-rule="nonzero"/><path d="M8.77 40.65c.26 0 .47-.21.47-.47a.47.47 0 00-.47-.48h-.13c-.11.16-.23.33-.33.51a.46.46 0 00.46.44zm.01 1.77a.47.47 0 000 .94.47.47 0 000-.94zm0 2.68a.47.47 0 00-.47.48.47.47 0 00.94 0 .47.47 0 00-.47-.48zm0 2.72a.47.47 0 000 .94.47.47 0 000-.94zm0 2.68a.48.48 0 00-.47.48.47.47 0 00.94 0 .48.48 0 00-.47-.48z" fill="#77D9F7" fill-rule="nonzero"/><circle fill="#77D9F7" fill-rule="nonzero" cx="6.06" cy="53.69" r="1"/><path d="M8.78 53.22a.47.47 0 000 .94.47.47 0 000-.94zM6.06 55.9a.48.48 0 00-.47.48c0 .26.21.47.47.47a.48.48 0 00.48-.47.49.49 0 00-.48-.48zm2.72 0a.48.48 0 00-.47.48.47.47 0 00.94 0 .48.48 0 00-.47-.48z" fill="#77D9F7" fill-rule="nonzero"/><circle fill="#77D9F7" fill-rule="nonzero" cx="6.06" cy="59.09" r="1"/><path d="M8.78 58.62a.47.47 0 000 .94.47.47 0 000-.94zM6.06 61.3a.48.48 0 00-.47.48c0 .26.21.47.47.47a.48.48 0 00.48-.47.49.49 0 00-.48-.48zm2.72 0a.48.48 0 00-.47.48.47.47 0 10.94 0 .48.48 0 00-.47-.48zM6.06 64a.47.47 0 100 .94.47.47 0 000-.94zm2.72 0a.47.47 0 000 .94.47.47 0 000-.94zm-2.72 2.7a.48.48 0 00-.47.48c0 .26.21.47.47.47a.48.48 0 00.48-.47.49.49 0 00-.48-.48zm2.72 0a.48.48 0 00-.47.48.47.47 0 00.94 0 .48.48 0 00-.47-.48zm-2.72 2.72a.47.47 0 100 .94.47.47 0 000-.94zm2.72 0a.47.47 0 000 .94.47.47 0 000-.94zM6.06 72.1a.48.48 0 00-.47.48.47.47 0 00.47.47.48.48 0 00.48-.47.49.49 0 00-.48-.48zm2.72 0a.48.48 0 00-.47.48.47.47 0 00.47.47.47.47 0 00.47-.47.48.48 0 00-.47-.48zm-2.72 2.72a.47.47 0 100 .94.47.47 0 000-.94zm2.72 0a.47.47 0 000 .94.47.47 0 000-.94zM6.06 77.5a.48.48 0 00-.47.48c0 .26.21.47.47.47a.48.48 0 00.48-.47.49.49 0 00-.48-.48zm2.72 0a.48.48 0 00-.47.48.47.47 0 00.94 0 .48.48 0 00-.47-.48zm-2.24 3.19a.48.48 0 00-.48-.47.49.49 0 00-.34.15c.11.26.22.52.32.79a.48.48 0 00.5-.47zm2.24-.47a.47.47 0 000 .94.47.47 0 000-.94zm0 2.68a.48.48 0 00-.47.48.47.47 0 10.94 0 .48.48 0 00-.47-.48zm0 2.72a.47.47 0 00-.47.47.45.45 0 00.09.26h.77a.45.45 0 00.09-.26.47.47 0 00-.48-.47zM2.9 56.38c.08-.15.17-.29.26-.43a.47.47 0 00-.26.43z" fill="#77D9F7" fill-rule="nonzero"/><path d="M3.37 56.85c.26 0 .47-.21.47-.47a.48.48 0 00-.47-.48.56.56 0 00-.21.06c-.09.14-.18.28-.26.43a.47.47 0 00.47.46zm.01 1.77a.47.47 0 000 .94.47.47 0 000-.94zm-2.24 3.16a.42.42 0 00-.09-.25c0 .2-.07.4-.1.6a.45.45 0 00.19-.35zm2.24-.48a.48.48 0 00-.47.48.47.47 0 10.94 0 .48.48 0 00-.47-.48zm-2.27 3.2a.46.46 0 00-.37-.48v.06c0 .28-.05.56-.06.86a.46.46 0 00.43-.44zm2.27-.5a.47.47 0 000 .94.47.47 0 000-.94zm-2.7 2.88c0 .25.07.51.1.77a.46.46 0 00.17-.35.45.45 0 00-.27-.42zm2.7-.18a.48.48 0 00-.47.48.47.47 0 00.94 0 .48.48 0 00-.47-.48zm0 2.72a.47.47 0 000 .94.47.47 0 000-.94zm0 2.68a.48.48 0 00-.47.48.47.47 0 00.47.47.47.47 0 00.47-.47.48.48 0 00-.47-.48zm.47 3.19a.47.47 0 00-.47-.47h-.06c.12.27.23.54.36.82a.48.48 0 00.17-.35zm8.06-37.65a.44.44 0 01-.45.32.41.41 0 01-.37-.23" fill="#77D9F7" fill-rule="nonzero"/><path d="M21.61 39c.712.06 1.428.06 2.14 0a13.29 13.29 0 002.11-.34 5.79 5.79 0 001.6-.63 1.84 1.84 0 00.79-.77c.37-.72 0-2.34-.81-3.74a26.54 26.54 0 00-2.95-4.21.94.94 0 01.12-1.31.93.93 0 011.14 0 27.86 27.86 0 014.3 3.7 12 12 0 011.83 2.53 7 7 0 01.9 3.62 6.52 6.52 0 01-1.61 3.92 10.8 10.8 0 01-2.87 2.31 18.86 18.86 0 01-3 1.35c-.5.18-1 .34-1.51.48-.536.159-1.08.29-1.63.39l-.31.05a3.68 3.68 0 01-1.25-7.25 3.5 3.5 0 011.01-.1z" fill="#845739" fill-rule="nonzero"/><circle fill="#845739" fill-rule="nonzero" cx="18.99" cy="30.96" r="1.19"/><path d="M20.93 31.27a2.11 2.11 0 00-1.34-.15l-.13-.6a2.68 2.68 0 011.59.14" fill="#FFB619" fill-rule="nonzero"/><path d="M184 94.15c-1.58.24-3.23-.06-4.84.07-1.4.11-2.72.56-4.12.69-.7.06-1.4 0-2.09.15a4.93 4.93 0 00-2.1.85c-.39.3-.71.7-.58 1.1a1.51 1.51 0 001 .76c.46.15 1 .24 1.4.4.4.16.95.49 1.45.72a9.46 9.46 0 003.87.61c1.35 0 2.69-.15 4-.08 2.55.15 5.1 1.05 7.57.57.83-.15 1.59-.46 2.42-.59 1.79-.28 3.9.24 5.37-.54.83-.44 1.23-1.2 2.08-1.62a8.54 8.54 0 00.92-.41 1 1 0 00-.22-1.75c-.94-.4-2.14 0-3.23 0-1.37 0-2.57-.66-3.91-.86a18.63 18.63 0 00-2.48-.09c-1.13 0-2.14-.27-3.24-.4a12.13 12.13 0 00-3.27.42z" fill="#D3D5D8" fill-rule="nonzero"/><path d="M176.08 99.39a13.47 13.47 0 002 .11l1.66-.06c-.5-.54-.95-1.05-1.24-1.39a23.64 23.64 0 01-2.42 1.34z"/><path d="M193.7 89.83a6.05 6.05 0 00-1.52-.52c-.48-.09-.86.51-.43.68a6.31 6.31 0 013 2.31 5.77 5.77 0 01-.53 7 7.92 7.92 0 003-.33 4.6 4.6 0 00.13-.5c.72-3.47-.42-7.03-3.65-8.64zm-13.7.04l-.1.17a3 3 0 01.31-.15l-.21-.02z" fill="#C48F65" fill-rule="nonzero"/><path d="M178.51 98.05c.29.34.74.85 1.24 1.39-.53-.59-1.01-1.13-1.24-1.39zm-.77-.95a4.2 4.2 0 01-.3-.6c.08.21.18.41.3.6zm.02.03a3 3 0 00.41.53l.34.39-.15-.17a5.33 5.33 0 01-.6-.75z" fill="#ECAD84" fill-rule="nonzero"/><path d="M177.77 91.93a5.06 5.06 0 00-.77 2.53l.1-.14a6.34 6.34 0 01.67-2.39z"/><path d="M178.17 97.66a3 3 0 01-.41-.53 3.36 3.36 0 01-.3-.6c-.06-.12-.08-.24-.13-.37a5 5 0 01-.21-1.81l-.1.14c-.18.24-.35.47-.51.66-.8 1-1.87 2.31-2.9 3.45-.42.45-.83.89-1.22 1.25l1.56.41a14.75 14.75 0 002.15-.84 23.64 23.64 0 002.43-1.34l-.36-.42z" fill="#AA7959" fill-rule="nonzero"/><path d="M190.22 96.71a25.44 25.44 0 01-1.75-2.42c-1.12-1.7-2.34-3.64-2.6-3.9a4.87 4.87 0 00-2.07-1.23 3.35 3.35 0 01-1 .49 7.25 7.25 0 01-2.62.24 3 3 0 00-.31.15l.1-.17h-.29v-.12a5.13 5.13 0 00-.79.62 6.46 6.46 0 00-1.81 4 4.86 4.86 0 00.27 2.05 5.11 5.11 0 012.38.85 7.93 7.93 0 012.11 2.2h.25c2.56.14 5.11 1 7.58.57.82-.16 1.58-.47 2.42-.6.31 0 .63-.06 1-.08a34.5 34.5 0 01-2.87-2.65z" fill="#C48F65" fill-rule="nonzero"/><path d="M184.13 88.48h-.19a5.49 5.49 0 01-.7-.17 4.66 4.66 0 01-3.38.48.19.19 0 00-.22.2l.06.74v.12h.5c.88.08 1.769 0 2.62-.24a3.35 3.35 0 001-.49c.06-.05.13-.08.18-.13a.52.52 0 00.16-.48l-.03-.03z" fill="#00A4DF" fill-rule="nonzero"/><path d="M179.75 97.22c-.43.3-.84.58-1.24.83.23.26.71.8 1.26 1.39.7 0 1.39-.05 2.09 0a7.93 7.93 0 00-2.11-2.22zm-2.38-.85c0 .05.05.09.07.13a4.2 4.2 0 00.3.6c.177.268.378.519.6.75l.15.17c.4-.25.81-.53 1.24-.83a5.11 5.11 0 00-2.36-.82z" fill="#ECAD84" fill-rule="nonzero"/><path d="M180.73 84.68h.25a.77.77 0 00-.25 0z" fill="#C48F65" fill-rule="nonzero"/><path d="M184 88l.09.47c.32 0 .65.1 1 .12.192.02.386 0 .57-.06a1 1 0 00.45-.46l-2.14-.14.03.07zm1-3l1.43.1a6.48 6.48 0 00-.23-1.08 2.38 2.38 0 00-.49-.93 1.52 1.52 0 00-1.35-.42A2.63 2.63 0 01185 85zm-2 2.87a2.48 2.48 0 01-.26.19c.155.093.32.17.49.23a5.76 5.76 0 00.57-.37l-.8-.05z" fill="#84573C" fill-rule="nonzero"/><path d="M184.13 88.48L184 88s0-.05-.05-.07h-.18a5.76 5.76 0 01-.57.37c.23.072.463.129.7.17l.23.01zm-1.72-.65l.26.2h.08a2.48 2.48 0 00.26-.19l-.6-.01zm-.07-3.04L185 85a2.63 2.63 0 00-.64-2.33c-1.09.14-1.66 1.11-2.02 2.12zm-5.72-1.71a.57.57 0 00-.17-.78.56.56 0 00-.78.18.55.55 0 00.17.77h.35a.53.53 0 00.43-.17z" fill="#84573C" fill-rule="nonzero"/><path d="M183.82 87.92h.18a.12.12 0 00-.18 0z" fill="#A7E2F9" fill-rule="nonzero"/><path d="M190.47 86.38c0-.47.39-.8.53-1.23a2.36 2.36 0 000-1.44c-.39-1.25-2-1.44-3.08-1-.83.35-1.11 1.51-1.17 2.31h-.37L185 85l-2.64-.17-1.36-.13h-.25a1.69 1.69 0 00-1 .42c-.74.62-1.9 1.8-3.53 1.3a3.82 3.82 0 01-.64-.27c-.56-.31-.67-1.13-.66-1.84l-1.25-.08a2.21 2.21 0 00-2.26-2.29 2.11 2.11 0 00-2 1.64c-.06.365-.03.74.09 1.09a2 2 0 01.25.88c-.06.47-.46.76-.65 1.18a2.34 2.34 0 00-.17 1.43c.26 1.29 1.84 1.64 3 1.29.86-.27 1.26-1.4 1.4-2.19l3.69.25s.12-.07.28-.1a7.28 7.28 0 011.67-.16c.14 0 1.39.35 2.25.54l1.27.08h.6l.8.05a.12.12 0 01.17 0l2.14.14h.56a2.21 2.21 0 002.47 2 2.11 2.11 0 001.85-1.83 2.21 2.21 0 00-.21-1.07c-.19-.16-.41-.45-.4-.78z" fill="#A7E2F9" fill-rule="nonzero"/><path d="M175 83.14v.06-.06zm1.19.19h-.25a.55.55 0 00.25 0z" fill="#C48F65" fill-rule="nonzero"/><path d="M183.41 81.92a2.89 2.89 0 00-2.35-.13 7.84 7.84 0 01-2.28.42h-.3c-.79-.05-1.7-.56-2.51-.34a1.55 1.55 0 00-.94 1.28v.06c0 .08-.06.33-.09.67v.42c0 .71.1 1.53.66 1.84.205.11.419.2.64.27 1.63.5 2.79-.68 3.53-1.3a1.69 1.69 0 011-.42.77.77 0 01.25 0l1.36.09c.36-1 .93-2 2-2.16a3.28 3.28 0 00-.97-.7zm-6.79 1.16a.53.53 0 01-.43.25.55.55 0 01-.25 0h-.1a.55.55 0 01-.17-.77.56.56 0 01.78-.18.57.57 0 01.17.7zm6.05 4.92l-.26-.2-1.27-.08c-.86-.19-2.11-.5-2.25-.54a7.28 7.28 0 00-1.67.16c-.16 0-.27.07-.28.1a9.09 9.09 0 001.64.78 4.65 4.65 0 002.22.53 3.63 3.63 0 001.94-.72l-.07-.03zm-3.96 15.67a.62.62 0 01-.56.31h-2.5v-.05a.79.79 0 01.81-.77h.38" fill="#C48F65" fill-rule="nonzero"/><path d="M177.08 103.93a65.52 65.52 0 002.41-6.2 37.4 37.4 0 00.86-6l2.76 1.09 2.17.85s.14 1-2.28 4.93a20.72 20.72 0 01-4.33 5.17" fill="#C48F65" fill-rule="nonzero"/><path d="M390.82 60c-1.06-3.45-2.27-6.84-3.63-10.14a112.7 112.7 0 00-2.16-4.88c-.75-1.6-1.57-3.23-2.38-4.62a3.51 3.51 0 011.28-4.8c1.68-1 3.26.16 4.23 1.84.14.23 1 1.64 1.19 1.19a45.54 45.54 0 011.13 4.54c.4 1.83.76 3.65 1.07 5.49.62 3.66 1.06 7.34 1.33 11" fill="#845739" fill-rule="nonzero"/><circle fill="#816343" fill-rule="nonzero" transform="rotate(-43.57 391.833 62.588)" cx="391.833" cy="62.588" r="1.22"/><path fill="#816343" fill-rule="nonzero" d="M370.63 88.66l-2.47-.28.42-5.84 3.01.35z"/><path d="M385.91 55.78L384.41 83a2.23 2.23 0 01-4.44.17V83l-3.47-26.87a4.74 4.74 0 019.4-1.21c.023.286.026.573.01.86z" fill="#6F8691" fill-rule="nonzero"/><path d="M379.51 56.55l-7.2 27v.16a2.23 2.23 0 01-4.38-.76l2.36-28.2a4.741 4.741 0 019.45.79 5.27 5.27 0 01-.13.81l-.1.2z" fill="#6F8691" fill-rule="nonzero"/><path fill="#253655" fill-rule="nonzero" d="M370.27 91.8l.78-4.06-2.92.06-.43 4"/><path fill="#816343" fill-rule="nonzero" d="M383.11 88.84l-2.29-.75v-5.84h3.03z"/><path fill="#253655" fill-rule="nonzero" d="M383.22 91.8l.47-4.42h-3.2l.3 4.29m-1.43.13a2.48 2.48 0 014.95 0m-18.69.1a2.27 2.27 0 114.53-.09"/><rect fill="#829CA9" fill-rule="nonzero" transform="rotate(2.02 369.975 84.114)" x="367.39" y="82.724" width="5.17" height="2.78" rx=".5"/><rect fill="#829CA9" fill-rule="nonzero" x="379.75" y="82.25" width="5.17" height="2.78" rx=".5"/><path d="M370 37.67a5.78 5.78 0 015.69-5.33l6.39.25a8.76 8.76 0 016.47 4.12 18.23 18.23 0 012.21 6.58L386.39 45l-.26 13.59s-4.69.53-7.54.63a52.14 52.14 0 01-7.46-.69l-1.14-.38.25-13.07s-.3-6.76-.24-7.41z" fill="#00B9FF" fill-rule="nonzero"/><path d="M360.19 21.06v.07a22.58 22.58 0 001.8 4.51 16.84 16.84 0 002.69 3.77 15.31 15.31 0 003.47 2.78 13.76 13.76 0 001.92 1 7.65 7.65 0 001.76.53 3.6 3.6 0 11-1.66 6.87l-.48-.22a18.1 18.1 0 01-5.14-3.64 21 21 0 01-5.66-9.87 25.76 25.76 0 01-.77-5.39" fill="#845739" fill-rule="nonzero"/><circle fill="#816343" fill-rule="nonzero" transform="rotate(-2.22 358.655 18.098)" cx="358.655" cy="18.098" r="1.22"/><path d="M365.12 37.79c.48.36 1 .74 1.46 1.08.46.34 1.2.8 1.84 1.16a16.88 16.88 0 002.14 1.09l.52.22a4.4 4.4 0 005.77-2.34c.95-2.23-1.23-6.66-1.23-6.66a28.26 28.26 0 01-6.61-1l-3.89 6.45z" fill="#00B9FF" fill-rule="nonzero"/><rect fill="#816343" fill-rule="nonzero" transform="rotate(-170.96 378.05 26.704)" x="374.975" y="22.369" width="6.15" height="8.67" rx="3.075"/><rect fill="#C58F62" fill-rule="nonzero" transform="rotate(-179.56 586.766 32.362)" x="583.236" y="27.392" width="7.06" height="9.94" rx="3.53"/><path d="M375.1 25.77c-1.34-1.7-1.15-4.85.26-4.68.87.14.73 1 1.24 1.08.51.08.78-1.24 2.46-1 1.26.2 1.33 1.47 1.83 1.55.5.08.65-.78 1.52-.65 1.39.28.51 3-.15 4.25-.55.88-1.2 2.71-1.38 2.55-.18-.16.3-2.1-.35-2.76-.65-.66-3.21.66-5.43-.37m3.81.26c-1.27.33-2-1-2.84-.58" fill="#303E5E" fill-rule="nonzero"/><circle fill="#816343" fill-rule="nonzero" cx="381.04" cy="28.23" r="1"/><path fill="#FFF" fill-rule="nonzero" d="M381.26 38.82l.65 1.08-1.13 1.09 1.96-.01.18-.43h-1.08l.65-.65-.38-.65h1.77l-1.54 3.7h.53l1.73-4.14z"/><path d="M381.71 32.61s-3 3.9-6.09-.27" fill="#816343" fill-rule="nonzero"/><path d="M590.9 27.12v-.08c.32-.32.08-.95-.68-1.21a2.41 2.41 0 00-1.65.39 4.42 4.42 0 01-1-.05c-.41-.83-1.32-.4-1.6.07a.67.67 0 00-.62-.21 1.19 1.19 0 00-.77.76.16.16 0 01-.05.09h-.11c-1.94.79-1.26 5.21-1.18 6.55.08 1.34 2.85 2 4.7-1.1.15-.26.54.11 0-1.2.24-.46 1.31-.34 2.14-.08 0 0 2.36-1.61 2.33-2.45a1.54 1.54 0 00-1.42-1.46h-.07l-.02-.02z" fill="#BF301C" fill-rule="nonzero"/><path d="M580.16 54.64l-.25-.57c6.73-2.91 6.24-19.94 6.23-20.12h.62c.03.7.51 17.61-6.6 20.69z" fill="#5D7079" fill-rule="nonzero"/><circle fill="#829CA9" fill-rule="nonzero" cx="586.23" cy="33.21" r="1.8"/><path d="M585.83 32.83s-1.41-4.92 1.78-6.67l1 .07s-3.19.89-2.05 6l-.73.6z" fill="#829CA9" fill-rule="nonzero"/><circle fill="#845739" fill-rule="nonzero" transform="rotate(-51.875 592.952 32.078)" cx="592.952" cy="32.078" r="1"/><circle fill="#845739" fill-rule="nonzero" transform="rotate(-51.94 589.824 33.407)" cx="589.824" cy="33.407" r="1"/><circle fill="#845739" fill-rule="nonzero" transform="rotate(-51.94 589.8 33.752)" cx="589.8" cy="33.752" r="1"/><circle fill="#845739" fill-rule="nonzero" transform="rotate(-51.94 589.422 33.86)" cx="589.422" cy="33.859" r="1"/></g><path d="M333.92 95.31a3 3 0 011.18-2 2.52 2.52 0 00.87-1.68 1.14 1.14 0 00-1.23-1.2 1.79 1.79 0 00-1.43.81l-1.15-1.07a3.37 3.37 0 012.7-1.25 2.61 2.61 0 012.83 2.63 3.29 3.29 0 01-1.2 2.39c-.56.53-1.15 1-1.18 1.48v.6h-1.35l-.04-.71zm-.33 2.84a1.035 1.035 0 112.07 0 1.035 1.035 0 01-2.07 0z" fill="#00B9FF" fill-rule="nonzero"/></g></svg>