<svg xmlns="http://www.w3.org/2000/svg" width="1290" height="795" viewBox="0 0 1290 795">
  <g id="Grupo_660" data-name="Grupo 660" transform="translate(2358 -3886)">
    <rect id="Retângulo_69" data-name="Retângulo 69" width="1290" height="795" transform="translate(-2358 3886)" fill="#fff"/>
    <g id="siac" transform="translate(-2391.909 3894.25)">
      <path id="Caminho_1" data-name="Caminho 1" d="M709.475,324.657c-6.87,8.523-12.918,15.994-18.943,23.5Q603.68,456.323,516.943,564.594a9.056,9.056,0,0,1-7.9,3.562c-20.273-.081-40.546,0-60.82-.069-1.538,0-3.608.671-4.476-.891-1.041-1.9.995-3.192,1.978-4.51q53.569-71.436,107.206-142.8,57.524-76.617,114.943-153.3a10.709,10.709,0,0,1,9.691-4.765c30.739.139,61.467.208,92.2,0,5.262,0,7.182,1.688,8.315,6.708Q807.73,400.014,837.73,531.5c1.457,6.43,2.984,12.849,4.325,19.3,2.186,10.536-3.261,17.347-13.8,17.347h-225.9c-4.487,0-8.974-.544-13.462-.856-3.122-.208-3.076-1.561-1.376-3.654q14.155-17.417,28.253-34.868c2.047-2.556,4.753-2.313,7.471-2.313l115.371.139c7.968,0,7.887,0,6.43-7.98q-17.1-93.953-34.163-187.929C710.609,329.11,710.169,327.548,709.475,324.657Z" transform="translate(64.09 40.067)" fill="#0078b4"/>
      <path id="Caminho_2" data-name="Caminho 2" d="M319,107.949c2.313.116,3.9,1.376,5.551,2.313a759.091,759.091,0,0,0,182.378,70.072A705.032,705.032,0,0,0,617.3,197.889c24.4,1.9,48.815,3.122,73.252,2.475A794.5,794.5,0,0,0,832.643,183.9c74.559-15.67,145.717-40.928,214.054-74.559,53.858-26.518,104.963-57.466,152.726-93.849,3.944-3,7.795-6.106,12.421-9.738-.243,3.157-1.712,4.7-2.729,6.349-15.462,25.246-31.1,50.388-46.387,75.738-3.284,5.435-7.864,9.252-12.594,13.115-64.382,51.707-135.76,91.212-213.233,119.754a690.67,690.67,0,0,1-141.45,35.851,657.212,657.212,0,0,1-77.334,6.222c-107.3,2.521-208.6-21.8-305.116-67.712-4.071-1.943-8.1-3.978-12.224-5.782-12.479-5.378-22.644-13.45-31.5-23.858-15.751-18.5-32.3-36.279-48.5-54.355C320.041,110.308,319,109.684,319,107.949Z" transform="translate(44.613 0)" fill="#fa1924"/>
      <path id="Caminho_3" data-name="Caminho 3" d="M1014.322,567.874c-42.316,0-84.643.278-126.959-.093-28.484-.254-51.579-12.293-69-34.776-9.749-12.583-14.514-27.177-15.034-43.045-1.446-47.6-.578-95.237-.544-142.849,0-44.213,28.912-78.815,71.806-87.176a89.933,89.933,0,0,1,17.266-1.515h251.976c7.159,0,7.286.127,7.3,7.286v40.546c0,8.593,0,8.593-8.385,8.593H892.706a33.977,33.977,0,0,0-20.736,6.511,27.49,27.49,0,0,0-12.016,23.488V482.467a53.557,53.557,0,0,0,1.076,10.061c1.908,9.7,9.657,16.538,20.331,17.81a134.162,134.162,0,0,0,15.393.937q123.316.092,246.655,0c7.668,0,7.679,0,7.691,7.737,0,14.317-.139,28.646.069,42.964.069,4.626-1.492,6.072-6.13,6.048-43.6-.139-87.211-.081-130.81-.081Z" transform="translate(120.275 39.539)" fill="#1f191a"/>
      <path id="Caminho_4" data-name="Caminho 4" d="M309.766,261.8h77.7c6.731,0,6.835.185,5.239,6.939-1.862,7.818-3.782,15.624-5.5,23.477-.694,3.134-2.394,4.73-5.343,6.083-10.767,4.938-21.881,6.5-33.723,6.361-37.32-.428-74.651-.185-111.971-.15-15.763,0-33.642,15.428-35.759,31.167-.856,6.3,1.665,12.016,5.551,16.989,7.934,10.154,18.192,17.775,28.75,24.807,21.673,14.456,43.8,28.253,65.5,42.674,14.9,9.9,28.82,21.013,40.3,34.984,18.5,22.54,17.694,51.071-2.51,72.049-22.875,23.754-50.6,36.533-83.753,38.534-24.6,1.492-49.174,1.353-73.761,1.862-23.488.474-46.965.8-70.453.59-18.007-.174-36.025-.613-54.031-.8-4.892,0-9.044-2.151-13.242-4.094-2.544-1.156-2.752-4.048-2.313-6.372,1.862-10.674,7.529-19.741,12.8-28.912,1.411-2.475,4.36-1.607,6.7-1.607H211.025c3.215,0,6.419-.335,9.622-.5,16.318-.81,26.009-10.246,32.59-24.159,6.939-14.676,4.059-25.94-9.194-35.435q-57.281-41.021-114.492-82.111-1.365-.995-2.706-2.012c-10.536-8.1-19.984-16.792-20.817-31.433-.96-17.474.856-34.012,12.721-48.11,12.721-15.115,29.595-23.546,47.9-29.305a252.552,252.552,0,0,1,74.536-11.5C264.073,261.691,286.914,261.8,309.766,261.8Z" transform="translate(0.996 40.062)" fill="#1f191a"/>
      <path id="Caminho_5" data-name="Caminho 5" d="M378.092,568.22H345.71c-5.782,0-6.014-.382-4.36-5.7q28.137-90.8,56.309-181.569,17.486-56.24,34.787-112.48c1.515-4.95,3.655-6.939,9.044-6.789,19.14.335,38.291.127,57.443.127,8.211,0,8.223,0,5.933,7.725q-24.876,83.961-49.787,167.91-18.319,61.5-36.927,122.9c-2.371,7.876-2.394,7.876-10.628,7.876Z" transform="translate(47.972 40.049)" fill="#1f191a"/>
      <path id="Caminho_6" data-name="Caminho 6" d="M643.88,104.62c.185-9.634,7.795-25.871,19.51-40.327,16.191-19.9,36.464-33.261,61.93-38.083a62.242,62.242,0,0,1,24.9,0c25.119,5.389,40.049,26.669,36.51,52.123-6.187,44.536-51.244,83.267-96.278,82.689C662.661,160.721,643.764,141.651,643.88,104.62Z" transform="translate(95.453 3.005)" fill="#fc0"/>
      <path id="Caminho_7" data-name="Caminho 7" d="M451.392,600.694c-4.95,11.8-8.65,14.248-21.036,14.294-3.863,0-7.737-.2-11.565.058s-5.967-1.156-7.2-4.8c-.833-2.463-.937-6.06-4.059-6.638a29.6,29.6,0,0,0-13.392.2c-2.579.729-2.533,3.874-3.469,6.037s-1.284,5-4.8,5.181-5.84-.729-7.575-3.851c-1.631-2.949-3.678-5.667-5.574-8.466a20.018,20.018,0,0,0-2.059-2.672c-2.961-3.065-6.835-3.076-10.339-1.978-2.937.925-1.4,4.2-1.619,6.442s-.069,4.5-.092,6.754c0,1.966-.578,3.469-2.937,3.574-2.625.069-3.25-1.584-3.25-3.77V578.674c0-2.8,1.156-4.175,3.944-4.279a105.241,105.241,0,0,1,19.741.8c4.626.705,7.4,3.8,8.35,8.28a10.108,10.108,0,0,1-4.626,11.276,43.118,43.118,0,0,1-3.874,2.059c2.174,2.868,4.186,5.54,6.233,8.188.648.833.925,2.313,2.313,2.082s1.4-1.631,1.793-2.648q4.95-12.837,9.865-25.674c.821-2.128,1.446-4.291,4.429-4.314s4.175,1.92,5.135,4.267c3.863,9.472,7.748,18.932,12.421,28.218,0-8.951.139-17.914-.069-26.854-.1-4.117,1.33-6.014,5.528-5.782,4.811.3,9.68.139,14.444.786,7.749,1.064,11.334,6.6,13.369,14.56,1.758-5.782,4.105-10.2,8.766-12.895a19.545,19.545,0,0,1,14.884-2.244c9.148,2.232,14.919,10.408,14.676,20.69S483.415,613.334,474.522,615C463.986,616.989,456.6,612.525,451.392,600.694Zm31.537-5.782c0-8.454-2.961-13.276-9.252-15.034-5.25-1.492-11.172.578-13.82,5.193a20.088,20.088,0,0,0-1.839,14.387c1.307,6.511,5.9,10.408,12.444,10.339,7.957.069,12.513-5.424,12.49-14.849Zm-58.588-.393h0V605.1c0,1.272,0,2.556,1.307,3.388,4.418,2.764,15.786-.347,17.833-5.146a21.973,21.973,0,0,0,.312-16.885c-2.093-5.412-8.558-7.829-16.653-6.06-5.389,1.156-1.966,5.852-2.752,8.859a21.569,21.569,0,0,0-.023,5.3Zm-57.107-14.468v.127h-5.308c-2.949,0-3.539,1.943-3.215,4.221.359,2.533-1.758,6.43,2.706,7.055a36.556,36.556,0,0,0,12.49-.289,5.444,5.444,0,0,0-.416-10.744,59.335,59.335,0,0,0-6.233-.335Zm33.665,1.723c-1.839,5.054-3.18,8.766-4.557,12.467-.74,1.966-.254,3.111,1.966,3.157h4.776c2.764,0,3.238-1.341,2.313-3.678-1.33-3.516-2.579-6.985-4.476-11.912Z" transform="translate(49.843 88.91)" fill="#1f191a"/>
      <path id="Caminho_8" data-name="Caminho 8" d="M244.319,586.732c0,7.54.058,15.092,0,22.644,0,2.2.9,5.424-2.984,5.3-3.643-.127-2.984-3.25-3.007-5.5-.093-9.807-.069-19.66,0-29.433,0-1.989-.486-4.464,2.371-5.123,2.486-.59,4.325.463,5.725,2.567,4.533,6.846,9.1,13.647,13.681,20.458.971,1.446,2.012,2.845,3.574,5.042,1.087-5.7.393-10.605.578-15.451.092-2.729.081-5.47,0-8.2-.081-3.192,1.087-4.533,4.557-4.522,18.007,0,36.013-.116,54.02-.208,1.284,0,2.579,0,3.863.058,1.966.139,4.071.231,4.094,2.961s-2.035,2.891-4.048,2.9c-4.626,0-9.344.254-13.982,0-4.464-.289-4.95,2.059-4.961,5.62s.532,5.91,4.984,5.586,8.674-.058,13.022,0c1.735,0,3.261.4,3.3,2.591s-1.4,2.695-3.18,2.706c-4.51,0-9.021.266-13.508,0-4.788-.278-4.626,2.718-4.626,5.944s-.382,6.615,4.7,6.384,9.969,0,14.965,0c2.232,0,4.406.393,4.21,3.342-.185,2.752-2.452,2.579-4.36,2.579H306.064c-3.331,0-4.533-1.388-4.487-4.626.127-8.361-.208-16.734.127-25.1.2-4.846-2.313-5.065-5.967-5.019s-6.661-.069-6.442,5.158c.347,8.038.127,16.087,0,24.136,0,2.313.555,5.25-3.169,5.308s-3.469-2.776-3.469-5.146c-.081-8.1-.312-16.1,0-24.124.231-5.551-3.03-5.2-6.8-5.343-3.955-.15-5.91.752-5.782,5.274.312,8.2.1,16.411.058,24.61,0,1.85.416,4.082-2.255,4.626a4.742,4.742,0,0,1-5.331-2.313Q254.033,599.4,245.232,586.4Z" transform="translate(31.98 88.971)" fill="#1f191a"/>
      <path id="Caminho_9" data-name="Caminho 9" d="M119.707,577.537c-.208-1.712.15-3.065,2.394-3.065a4.452,4.452,0,0,1,4.626,3.469q4.3,12.3,8.743,24.541c.578,1.6.636,3.469,2.174,4.95,3.631-9.8,7.17-19.441,10.8-29.051,1.3-3.469,8.974-5.5,11.877-3.319a3.377,3.377,0,0,1,1.018,3.065q0,16.434,0,32.833c0,2.128-.393,3.909-3.088,3.874s-3.053-1.92-3.065-3.978c0-10.27,0-20.539-1.018-31.075l-5,12.721c-2.463,6.28-4.95,12.571-7.39,18.874-.81,2.07-1.827,3.643-4.452,3.62s-3.562-1.758-4.348-3.782c-3.469-9-6.939-17.995-10.859-27.062-.335,2.695-.3,5.424-1.954,7.737s-4.383,3.643-7.39,4.9a64.542,64.542,0,0,1,9.657,13.034c.833,1.388,3.6,3.169,1.052,4.719a4.788,4.788,0,0,1-6.465-1.492c-1.758-2.51-3.4-5.077-5.089-7.633-2.683-4.048-5.146-8.1-11.1-7.922-3.62.116-5.435.971-5.112,4.915.243,3.042,0,6.118,0,9.171,0,1.85-.694,3.111-2.752,3.227a2.889,2.889,0,0,1-3.319-3.18V577.838c0-1.561.613-3.053,2.313-3.134C101.2,574.241,110.525,573.4,119.707,577.537Zm-15.381,2.475v.139c-1.608,0-3.215.069-4.811,0-3.9-.2-3.978,2.417-3.77,5.135s-1.156,6.314,3.55,6.326a112.642,112.642,0,0,0,11.565-.359c2.868-.3,4.5-2.313,4.626-5.285a4.985,4.985,0,0,0-4.395-5.436A49.478,49.478,0,0,0,104.326,580.012Z" transform="translate(8.723 88.949)" fill="#1f191a"/>
      <path id="Caminho_10" data-name="Caminho 10" d="M188.563,604.071c-3.134,6.245-7.506,10.871-15.555,11.3,2.128,2.591,4.626,4.476,2.625,7.529-1.874,2.845-4.776,3-7.714,2.914-1.376,0-3.18.127-3.273-1.943s1.561-2.139,3.018-2.313c.925-.15,1.92-.127,2.567-.995a25.685,25.685,0,0,0-8.928-8.1c-7.39-4.233-10.154-16.8-6.673-26.6,2.88-8.1,10.408-12.617,19.452-11.773a14.757,14.757,0,0,1,11.669,6.754c1.006,1.573,3.169,3.631.694,5.435s-4.383.544-5.782-2.035c-2.452-4.418-6.569-5.447-11.195-4.626-7.459,1.307-10.8,8.35-9.4,19.441.937,7.4,5.424,11.137,12.721,10.767a9.333,9.333,0,0,0,8.176-5.1c1.156-2.151,1.561-5.054,5.366-3.99,1.677.463,1.33-1.341,1.3-2.394a33.735,33.735,0,0,1,.59-9.576c2.591-10.073,10.408-15.659,20.817-14.676,9.541.925,16.376,8.535,16.734,18.654.555,15.589-9.449,25.107-23.373,22.239C197.434,613.971,194.612,611.739,188.563,604.071Zm30.924-8.951c.116-6.153-1.515-11.565-7.4-14.514-4.626-2.313-9.1-1.469-13.1,1.55-7.02,5.3-6.939,19.938.1,25.246a11.346,11.346,0,0,0,6.164,2.452c8.766.59,14.19-4.961,14.236-14.722Z" transform="translate(18.658 88.922)" fill="#1f191a"/>
      <path id="Caminho_11" data-name="Caminho 11" d="M1027.555,607.794c0-9.46.139-18.92-.069-28.369-.081-3.782,1.33-5.331,5.019-5.123,4.811.289,9.634.416,14.433.74a12.86,12.86,0,0,1,5.864,2.059c6.106,3.747,9.252,12.918,7.6,21.973-1.793,9.553-5.655,13.878-14.179,15.347-7.02,1.156-14.121.416-21.175.463-2.695,0-3.146-2.313-4.059-4.129-1.237-2.51-1.029-6.372-4.244-7.112a33.542,33.542,0,0,0-13.4,0c-1.781.324-2.059,2.313-2.637,3.77-.694,1.793-1.341,3.62-2.128,5.366-.971,2.186-2.9,2.51-4.869,1.85-2.429-.821-1.156-2.718-.671-4.048,4.094-10.813,8.3-21.592,12.444-32.382.8-2.082,1.85-3.678,4.418-3.724,2.822,0,3.874,1.746,4.765,3.955,4,9.819,8.1,19.66,12.074,29.409Zm6.187-13.566h0v10.617c0,1.284,0,2.614,1.156,3.469,3.828,2.833,15.589-.185,17.567-4.719a21.707,21.707,0,0,0,.567-16.919c-2.128-5.516-8.963-8.257-16.6-6.3-5.193,1.341-1.943,5.956-2.695,9.021A20.2,20.2,0,0,0,1033.742,594.229Zm-23.685-12.455c-1.7,4.626-3.042,8.327-4.429,12.028-.833,2.174-.208,3.469,2.174,3.55,1.6.081,3.192,0,4.776,0,2.093,0,3.018-.763,2.209-2.926C1013.3,590.528,1011.827,586.55,1010.058,581.773Z" transform="translate(149.971 88.969)" fill="#1f191a"/>
      <path id="Caminho_12" data-name="Caminho 12" d="M783.6,601.6V581.025c0-6.372.058-6.4,6.4-6.476,8.836-.093,17.683-.208,26.53-.2,2.128,0,4.927-.382,4.776,3.134-.127,3.146-2.683,2.591-4.626,2.729a21.993,21.993,0,0,1-3.377,0c-3.354-.3-4.568,1.226-4.51,4.522.127,7.228,0,14.468,0,21.707v3.863c0,2.14,0,4.395-3.088,4.429s-3.088-2.186-3.088-4.348c0-8.373-.335-16.746.093-25.1.3-5.852-3.319-4.973-6.846-5.1-3.724-.139-6.557,0-6.268,5.181.416,7.529.22,15.115,0,22.667-.058,2.313,1.457,5.528-2.139,6.592s-5.054-1.9-6.661-4.291c-4.291-6.407-8.558-12.849-12.883-19.244-.867-1.284-1.411-2.88-3.735-4V610.33c-.139,2.116-.174,4.453-3.2,4.372s-2.753-2.6-2.764-4.626q-.069-15.439,0-30.89c0-1.654-.613-3.793,1.735-4.487s4.348.231,5.782,2.313q7.483,11.241,15.034,22.447c.52.786,1.156,1.527,1.654,2.313Z" transform="translate(113.331 88.977)" fill="#1f191a"/>
      <path id="Caminho_13" data-name="Caminho 13" d="M603.654,574.337h25.061c1.723,0,3.921-.335,4.765,1.527,1.261,2.776-.116,4.291-3.065,4.314-5.146,0-10.293.208-15.428,0-4.626-.173-4.036,2.937-4.117,5.782s-.081,5.516,4.117,5.32c4.5-.22,9,0,13.508,0,1.978,0,4.094,0,4,2.833-.081,2.521-2.035,2.51-3.84,2.521-4.5,0-9,.139-13.5,0-3.065-.093-4.244,1.029-4.325,4.186-.22,7.98-.266,8.1,7.737,8.1h12.536c1.827,0,3.643.312,3.724,2.776.093,2.718-1.781,3.111-3.863,3.123H608.8c-3.157,0-4.2-1.538-4.175-4.487.069-8.361-.22-16.723.093-25.073.174-4.626-1.978-5.355-5.782-5.193-3.469.15-6.731-.347-6.488,5.031.37,7.853.174,15.74,0,23.615,0,2.313,1.076,5.782-2.984,5.875s-3.146-3.3-3.18-5.655c-.1-8.1-.162-16.075,0-24.1.081-3.574-1.156-5.054-4.765-4.718-1.6.139-3.215,0-4.823,0-2.07,0-3.469-.821-3.365-3.111s1.6-2.66,3.308-2.683c5.944-.081,11.889-.081,17.833-.1h9.159Z" transform="translate(84.412 88.957)" fill="#1f191a"/>
      <path id="Caminho_14" data-name="Caminho 14" d="M701.762,586.913v22.54c0,2.313.613,5.308-3.157,5.262-3.469,0-2.961-2.81-2.972-4.973V579.326c0-2.313.069-4.626,3.25-4.88,2.88-.231,5.447-.1,6.557,3.331,2.475,7.656,5.065,15.277,7.656,22.887.5,1.469.578,3.157,2.51,4.7,3.18-9.125,6.314-17.972,9.321-26.865.867-2.556,2.07-4.233,5.054-4.163,2.672,0,4.36.925,4.36,3.863v32.821c0,2.116-.717,3.886-3.354,3.712s-2.591-2-2.591-3.84c0-8.28,0-16.561-.729-24.945-2.833,8.165-5.644,16.33-8.512,24.483-.729,2.082-1.156,4.5-4.256,4.406s-3.469-2.487-4.163-4.626q-4.071-11.738-8.1-23.5Z" transform="translate(103.548 88.976)" fill="#1f191a"/>
      <path id="Caminho_15" data-name="Caminho 15" d="M965.46,594.436c0-5.135.069-10.281,0-15.428-.058-3.215,1.318-4.823,4.626-4.626,5.285.243,10.628.116,15.855.833,8.65,1.156,14.248,10.408,13.265,21.141-1.156,12.987-7.228,18.643-20.412,18.585-15.358-.081-13.057,2.313-13.276-13.207v-7.24Zm6.673.116h0v10.1c0,1.434,0,2.891,1.515,3.793,6.072,3.654,16.862-.891,18.307-7.876a30.38,30.38,0,0,0,0-11.958c-1.307-6.557-6.534-9.252-16.052-8.338-6.58.636-2.972,5.852-3.782,9.021a22.171,22.171,0,0,0,.012,5.262Z" transform="translate(145.776 88.982)" fill="#1f191a"/>
      <path id="Caminho_16" data-name="Caminho 16" d="M653.258,602.154V579.521c0-2.186-.37-4.88,3.053-4.9s3.042,2.683,3.053,4.869v30.392c0,1.839.486,4.094-2.116,4.765s-4.314-.37-5.782-2.487c-5.678-8.558-11.426-17.081-18.157-25.57v25c0,1.862-.81,3.053-2.845,3.134a2.672,2.672,0,0,1-3.088-2.891q-.081-17.128,0-34.243a2.776,2.776,0,0,1,2.452-3.076,4.973,4.973,0,0,1,5.331,2.429c4.788,7.24,9.634,14.444,14.468,21.649.879,1.307,1.827,2.579,2.741,3.863Z" transform="translate(92.864 88.989)" fill="#1f191a"/>
      <path id="Caminho_17" data-name="Caminho 17" d="M347.426,593.66c1.284,0,2.579.069,3.863,0,3.377-.185,5.239,1.156,4.892,4.753a15.365,15.365,0,0,0,0,1.931c0,9.853-3.284,13.647-13.311,14.8-8.743,1.006-16.411-.867-21.233-9.044-4.383-7.436-3.469-18.654,1.966-25.524,7.436-9.425,25.581-8.546,30.346,1.492,1.157,2.313,1.943,4.707-1.966,5.3-1.631.243-2.209-.8-2.961-1.908-4.025-5.921-9.414-7.6-15.809-4.857-5.574,2.394-7.587,7.089-7.887,12.721-.312,5.933.786,11.368,6.465,14.537,5.378,3.018,10.848,2.313,16.11-.52,2.22-1.156,2.22-3.389,1.92-5.516-.359-2.521-2.452-1.943-4.129-2.313-2.5-.5-6.87,1.677-6.939-2.776,0-4.719,4.522-2.556,7.182-3.134a6.7,6.7,0,0,1,1.492.058Z" transform="translate(44.591 88.924)" fill="#1f191a"/>
      <path id="Caminho_18" data-name="Caminho 18" d="M484.52,594.425c0-5.146.069-10.293,0-15.428-.058-3.238,1.365-4.811,4.626-4.626,5.285.231,10.628.1,15.855.833,8.685,1.156,14.179,10.408,13.149,21.152-1.249,13.172-7.055,18.631-20.343,18.573-15.358-.069-13.022,2.22-13.253-13.23v-7.228Zm26.992.324c.116-11.935-6.048-16.827-18.122-14.491-1.723.335-2.637,1.156-2.637,2.81V606.2c0,1.48.89,2.209,2.313,2.59,11.472,3.076,18.342-2.163,18.446-14.028Z" transform="translate(70.515 88.98)" fill="#1f191a"/>
      <path id="Caminho_19" data-name="Caminho 19" d="M657.211,594.857c0-5.146.116-10.3,0-15.439-.1-3.4,1.157-5.239,4.626-5.077,5.3.231,10.593.474,15.89.775a8.408,8.408,0,0,1,2.313.682c7.54,2.8,11.16,10.408,10.408,21.788-.567,8.789-5.3,14.849-12.86,16.584-5.574,1.272-11.218.613-16.827.694-2.752,0-3.574-1.631-3.562-4.071V594.857Zm6.234-.821h0v11.056c0,1.272,0,2.556,1.318,3.377,4.476,2.764,15.786-.358,17.833-5.181a21.893,21.893,0,0,0,.289-16.873c-2.093-5.4-8.628-7.841-16.654-6.037-5.378,1.156-1.931,5.863-2.741,8.859a18.5,18.5,0,0,0-.046,4.8Z" transform="translate(97.537 88.976)" fill="#1f191a"/>
      <path id="Caminho_20" data-name="Caminho 20" d="M514.47,594.659c0-5.146.081-10.293,0-15.439-.069-3.122,1.006-4.9,4.372-4.88h21.222c1.8,0,3.654.278,3.689,2.8,0,2.776-1.885,3.007-3.932,3.03-4.984,0-9.981.208-14.953,0-4.626-.2-4.129,2.833-4.163,5.782s-.22,5.574,4.048,5.389c4.626-.208,9.321,0,13.993,0,1.885,0,3.7.254,3.678,2.718s-1.908,2.637-3.759,2.637c-4.626,0-9.333.116-13.993,0-2.914-.069-3.886,1.156-4,4-.312,8.176-.347,8.234,8.1,8.246h12.062c2.012,0,3.99.3,3.921,3.076-.058,2.452-1.793,2.81-3.666,2.822H518.4c-2.961,0-3.874-1.642-3.851-4.314C514.505,605.276,514.47,599.968,514.47,594.659Z" transform="translate(75.201 88.977)" fill="#1f191a"/>
      <path id="Caminho_21" data-name="Caminho 21" d="M899.45,574c11.4,0,19.533,8.72,19.383,20.817s-8.2,20.69-19.591,20.655c-10.964,0-19.117-8.847-19.082-20.62C880.183,582.558,888.07,574,899.45,574Zm12.606,20.817v-1.446c-.312-8.234-4.707-13.473-11.681-13.878-7.4-.486-12.27,4.175-13.646,13.034-1.214,7.818,2.891,15.485,9.148,17.058a9.837,9.837,0,0,0,1.422.22c9.159,1.041,14.838-4.684,14.757-14.988Z" transform="translate(132.428 88.924)" fill="#1f191a"/>
      <path id="Caminho_22" data-name="Caminho 22" d="M730.78,594.694c0-5.308.058-10.605,0-15.9,0-3.018,1.3-4.464,4.3-4.452h21.2c1.769,0,3.654.208,3.735,2.729.1,2.764-1.769,3.076-3.828,3.1-5.146,0-10.281.15-15.416,0-4.418-.116-3.77,2.914-3.793,5.6s-.543,5.678,3.851,5.528c4.811-.173,9.634,0,14.456,0,1.677,0,3.331.254,3.469,2.452.139,2.463-1.561,2.868-3.469,2.88-4.626,0-9.252.139-13.97,0-3.007-.093-4.279.9-4.36,4.117-.185,8.1-.3,8.1,7.656,8.1h12.525c2,0,3.967.312,3.874,3.1-.081,2.463-1.827,2.776-3.678,2.787H734.689c-2.984,0-3.874-1.665-3.851-4.314C730.8,605.288,730.78,599.991,730.78,594.694Z" transform="translate(109.052 88.977)" fill="#1f191a"/>
      <path id="Caminho_23" data-name="Caminho 23" d="M829.183,574c11.426,0,19.267,8.28,19.475,20.666.2,11.923-8.038,20.713-19.429,20.817-10.952,0-19.186-8.732-19.209-20.493C810,582.674,817.873,574.069,829.183,574ZM841.9,595.025c0-11.97-8.454-18.747-18.018-14.41-6.28,2.833-7.425,8.558-7.506,14.433s1.827,11.149,7.748,13.785c9.275,4.14,17.81-2.544,17.821-13.785Z" transform="translate(121.452 88.924)" fill="#1f191a"/>
      <path id="Caminho_24" data-name="Caminho 24" d="M1097.207,615.353c-11.056-.116-19.279-8.951-19.117-20.516.185-12.548,8.246-21,19.845-20.817,10.975.174,18.839,8.847,18.885,20.817S1108.61,615.481,1097.207,615.353Zm12.837-20.215c0-5.678-.821-11.044-6.419-14.121a12.27,12.27,0,0,0-13.288.555c-8.1,5.25-7.6,22.2.879,26.773C1098.722,612.393,1110.449,608.993,1110.044,595.138Z" transform="translate(163.401 88.927)" fill="#1f191a"/>
      <path id="Caminho_25" data-name="Caminho 25" d="M77.378,614.913c-3.377,0-6.765-.081-10.142,0s-4.626-1.157-4.626-4.522q.173-15.925,0-31.861c0-2.845,1.156-4.21,3.932-4.21,7.24,0,14.479,0,21.719.069,1.874,0,3.6.578,3.562,2.984s-1.769,2.8-3.666,2.81c-5,0-9.992.208-14.965,0-4.476-.208-4.325,2.579-4.372,5.655s.127,5.782,4.5,5.516,9.009,0,13.519,0c1.746,0,3.238.44,3.25,2.625s-1.457,2.648-3.227,2.66c-4.337,0-8.708.324-13.022,0-4.846-.37-5.065,2.313-5.042,5.991s.069,6.742,5.239,6.372c4.8-.347,9.645-.093,14.479,0,1.943,0,4.117,0,4.244,2.753.139,3.042-2.1,3.169-4.291,3.192C84.78,614.936,81.079,614.913,77.378,614.913Z" transform="translate(4.491 88.974)" fill="#1f191a"/>
      <path id="Caminho_26" data-name="Caminho 26" d="M50.066,615.3c-8.176-.231-13.589-3.388-15.428-9.171-.5-1.561-1.642-3.62.648-4.626s3.759-.162,5,2.163a11.912,11.912,0,0,0,15.624,5.181c2.22-1.029,3.655-2.567,3.608-5.169a4.823,4.823,0,0,0-3.469-4.7c-3.643-1.249-7.4-2.116-11.079-3.273-6.835-2.163-10.119-6.21-9.495-11.565.671-5.632,5.482-9.564,12.34-10.061,7.922-.59,13.947,2.394,15.994,8,.578,1.608,1.619,3.539-.821,4.5-2.047.8-3.469.116-4.626-2.012-2.648-4.753-7.529-6.245-12.721-4.36-2.082.752-3.816,1.781-3.909,4.291s1.457,4.14,3.84,4.834c2.776.81,5.574,1.538,8.361,2.313,8.917,2.417,12.721,6.673,11.831,13.207S58.659,615.552,50.066,615.3Z" transform="translate(0 88.925)" fill="#1f191a"/>
      <path id="Caminho_27" data-name="Caminho 27" d="M887.446,612.594a1.631,1.631,0,0,1-1.469,2.082c-1.978.335-3.978.347-5.008-1.792a54.337,54.337,0,0,1-2.568-6.234,4.626,4.626,0,0,0-5.065-3.469c-1.446.069-2.891,0-4.337,0-9.171,0-7.748-.127-10.5,7.332a10.41,10.41,0,0,1-1.746,3.377,3.666,3.666,0,0,1-4.464.59c-1.654-.752-.914-2.221-.474-3.365q6.442-16.885,12.941-33.735a4.025,4.025,0,0,1,3.955-2.926,4.279,4.279,0,0,1,4.51,2.868q6.87,16.966,13.808,33.92a11.1,11.1,0,0,1,.416,1.353ZM869,581.624c-1.7,4.718-2.937,8.35-4.325,11.912-.925,2.313-.474,3.747,2.313,3.816h4.8c2.313,0,2.671-1.307,1.978-3.169C872.284,590.332,870.827,586.469,869,581.624Z" transform="translate(127.906 88.991)" fill="#1f191a"/>
      <path id="Caminho_28" data-name="Caminho 28" d="M1051.809,614.787c-3.585-.208-2.487-2.5-1.758-4.418,3.574-9.448,7.078-18.932,10.917-28.288,1.156-2.972.914-7.61,5.933-7.621s4.811,4.626,6.095,7.552c3.978,9.113,7.691,18.342,11.357,27.594.59,1.5,2.637,3.712-.231,4.892-2.521,1.052-4.5.081-5.782-2.683s-1.156-6.939-4.51-8.1c-3.92-1.388-8.28-.74-12.409-.382s-3.608,4.383-4.869,6.939C1055.521,612.393,1055.232,615.145,1051.809,614.787Zm15.2-33.041c-1.677,4.626-3,8.292-4.406,11.993-.937,2.486-.139,3.643,2.486,3.631h4.314c2.058,0,3.065-.833,2.313-2.949C1070.267,590.443,1068.763,586.476,1067.005,581.746Z" transform="translate(158.897 88.996)" fill="#1f191a"/>
      <path id="Caminho_29" data-name="Caminho 29" d="M585.169,612.378c.278,1.156,0,1.954-1.156,2.22-1.781.416-3.7.6-4.811-1.156a18.261,18.261,0,0,1-2.313-5.262c-1.006-3.99-3.47-5.516-7.425-5.054a12.143,12.143,0,0,1-3.365,0c-5.378-.856-8.57,1.156-9.576,6.673a9.647,9.647,0,0,1-1.781,3.9c-1.156,1.469-2.868,1.434-4.418.856-2.059-.786-1.156-2.417-.624-3.678,4.233-11.1,8.535-22.181,12.721-33.284.775-2.024,2.024-3.2,4.279-3.169a4.094,4.094,0,0,1,4.152,2.672q6.939,17.2,14.005,34.359A6.73,6.73,0,0,1,585.169,612.378Zm-18.388-30.739c-1.7,4.684-2.914,8.327-4.325,11.877-1.156,2.857,0,3.874,2.718,3.874h3.839c2.313.069,3.389-.786,2.487-3.18C570.065,590.346,568.654,586.484,566.781,581.638Z" transform="translate(80.611 88.988)" fill="#1f191a"/>
      <path id="Caminho_30" data-name="Caminho 30" d="M926,594.9c0-13.647,8.223-21.765,20.7-20.817a15.15,15.15,0,0,1,12.478,7.934c.833,1.422,2.313,3.273-.069,4.522-1.966,1.029-3.747.995-5.308-1.376-3.816-5.782-8.1-7.055-13.878-4.834a10.593,10.593,0,0,0-6.338,6.823,23.339,23.339,0,0,0-.312,14.225c1.33,4.88,4.441,7.691,9.437,8.361,5.2.694,9.1-1.156,11.565-5.9.578-1.1.682-2.614,2.093-3.088a4.3,4.3,0,0,1,3.678.74c1.677,1.075.821,2.614.278,3.874-2.579,5.967-7.02,9.391-13.635,9.888-7.471.555-13.716-1.422-17.648-8.269A22.043,22.043,0,0,1,926,594.9Z" transform="translate(139.599 88.925)" fill="#1f191a"/>
      <path id="Caminho_31" data-name="Caminho 31" d="M688,594.135V578.28c0-1.885.2-3.631,2.637-3.759s3.469,1.237,3.469,3.527V611.2c0,1.943-.624,3.469-2.972,3.469-2.648.058-3.157-1.619-3.157-3.782C688,605.341,688,599.732,688,594.135Z" transform="translate(102.354 89.005)" fill="#1f191a"/>
      <path id="Caminho_32" data-name="Caminho 32" d="M957.732,594.451V578.6c0-2.047.231-3.944,2.914-4.025,2.972-.092,3.3,1.908,3.3,4.163v31.7c0,2.2-.185,4.325-3.192,4.279s-3.007-2.313-3.018-4.418C957.709,605.009,957.72,599.724,957.732,594.451Z" transform="translate(144.565 89.013)" fill="#1f191a"/>
      <path id="Caminho_33" data-name="Caminho 33" d="M236.75,594.925v15.844c0,2.082-.347,3.921-3.03,3.955s-3.18-1.665-3.18-3.8V578.26c0-2.22.705-3.782,3.273-3.689s2.937,1.978,2.937,4.025Z" transform="translate(30.77 89.013)" fill="#1f191a"/>
      <path id="Caminho_34" data-name="Caminho 34" d="M1069.672,574.035c-3.365-.624-6.5-3-10.223-.116-1.457,1.156-2.683-1.156-1.885-2.984,1.6-3.6,4.522-4.106,8.014-3.03,1.608.509,3.146,1.8,4.985.636,1.48-.937,3.4-2.313,4.348,0,.867,2.2-.867,3.9-2.891,4.869a12.229,12.229,0,0,1-2.348.624Z" transform="translate(160.15 87.871)" fill="#1f191a"/>
    </g>
  </g>
</svg>
